<svg xmlns="http://www.w3.org/2000/svg" width="16" height="68" viewBox="0 0 16 68">
  <g id="Grupo_5416" data-name="Grupo 5416" transform="translate(-230 -655)">
    <path id="Subtração_4" data-name="Subtração 4" d="M-2178-3521h0l-3.893-7.009A8.015,8.015,0,0,1-2186-3535a8.01,8.01,0,0,1,8-8,8.01,8.01,0,0,1,8,8,8.011,8.011,0,0,1-4.1,6.988L-2178-3521Zm0-18a4,4,0,0,0-4,4,4,4,0,0,0,4,4,4,4,0,0,0,4-4A4.005,4.005,0,0,0-2178-3539Z" transform="translate(2416 4244)" fill="#9b9b9b"/>
    <path id="Subtração_5" data-name="Subtração 5" d="M-2178-3521h0l-3.893-7.009A8.015,8.015,0,0,1-2186-3535a8.01,8.01,0,0,1,8-8,8.01,8.01,0,0,1,8,8,8.011,8.011,0,0,1-4.1,6.988L-2178-3521Zm0-18a4,4,0,0,0-4,4,4,4,0,0,0,4,4,4,4,0,0,0,4-4A4.005,4.005,0,0,0-2178-3539Z" transform="translate(2416 4198)" fill="#45cedd"/>
  </g>
</svg>
