<svg xmlns="http://www.w3.org/2000/svg" width="17.38" height="63.417" viewBox="0 0 17.38 63.417">
  <g id="Grupo_5415" data-name="Grupo 5415" transform="translate(-253.436 -657.46)">
    <g id="communications" transform="translate(252.896 703.46)">
      <g id="Grupo_5401" data-name="Grupo 5401" transform="translate(0.539 0)">
        <path id="Caminho_1930" data-name="Caminho 1930" d="M17.464,12.782l-2.431-2.431a1.617,1.617,0,0,0-2.691.608A1.654,1.654,0,0,1,10.432,12,7.5,7.5,0,0,1,5.918,7.487,1.573,1.573,0,0,1,6.96,5.577a1.617,1.617,0,0,0,.608-2.691L5.137.456a1.734,1.734,0,0,0-2.344,0L1.144,2.105C-.505,3.841,1.318,8.442,5.4,12.522s8.681,5.99,10.417,4.254l1.649-1.649A1.734,1.734,0,0,0,17.464,12.782Z" transform="translate(-0.539 0)" fill="#9b9b9b"/>
      </g>
    </g>
    <g id="communications-2" data-name="communications" transform="translate(252.896 657.46)">
      <g id="Grupo_5401-2" data-name="Grupo 5401" transform="translate(0.539 0)">
        <path id="Caminho_1930-2" data-name="Caminho 1930" d="M17.464,12.782l-2.431-2.431a1.617,1.617,0,0,0-2.691.608A1.654,1.654,0,0,1,10.432,12,7.5,7.5,0,0,1,5.918,7.487,1.573,1.573,0,0,1,6.96,5.577a1.617,1.617,0,0,0,.608-2.691L5.137.456a1.734,1.734,0,0,0-2.344,0L1.144,2.105C-.505,3.841,1.318,8.442,5.4,12.522s8.681,5.99,10.417,4.254l1.649-1.649A1.734,1.734,0,0,0,17.464,12.782Z" transform="translate(-0.539 0)" fill="#45cedd"/>
      </g>
    </g>
  </g>
</svg>
