<svg xmlns="http://www.w3.org/2000/svg" width="16.194" height="64.425" viewBox="0 0 16.194 64.425">
  <g id="Grupo_5417" data-name="Grupo 5417" transform="translate(-208 -657.031)">
    <g id="user" transform="translate(208 703.031)">
      <g id="Grupo_120" data-name="Grupo 120" transform="translate(3.239)">
        <g id="Grupo_119" data-name="Grupo 119">
          <path id="Caminho_343" data-name="Caminho 343" d="M125.858,0a4.858,4.858,0,1,0,4.858,4.858A4.864,4.864,0,0,0,125.858,0Z" transform="translate(-121)" fill="#9b9b9b"/>
        </g>
      </g>
      <g id="Grupo_122" data-name="Grupo 122" transform="translate(0 10.796)">
        <g id="Grupo_121" data-name="Grupo 121">
          <path id="Caminho_344" data-name="Caminho 344" d="M45.141,302.094A6.926,6.926,0,0,0,40.177,300H38.017a6.926,6.926,0,0,0-4.965,2.094,7.08,7.08,0,0,0-2.052,5,.54.54,0,0,0,.54.54H46.654a.54.54,0,0,0,.54-.54A7.08,7.08,0,0,0,45.141,302.094Z" transform="translate(-31 -300)" fill="#9b9b9b"/>
        </g>
      </g>
    </g>
    <g id="user-2" data-name="user" transform="translate(208 657.031)">
      <g id="Grupo_120-2" data-name="Grupo 120" transform="translate(3.239)">
        <g id="Grupo_119-2" data-name="Grupo 119">
          <path id="Caminho_343-2" data-name="Caminho 343" d="M125.858,0a4.858,4.858,0,1,0,4.858,4.858A4.864,4.864,0,0,0,125.858,0Z" transform="translate(-121)" fill="#45cedd"/>
        </g>
      </g>
      <g id="Grupo_122-2" data-name="Grupo 122" transform="translate(0 10.796)">
        <g id="Grupo_121-2" data-name="Grupo 121">
          <path id="Caminho_344-2" data-name="Caminho 344" d="M45.141,302.094A6.926,6.926,0,0,0,40.177,300H38.017a6.926,6.926,0,0,0-4.965,2.094,7.08,7.08,0,0,0-2.052,5,.54.54,0,0,0,.54.54H46.654a.54.54,0,0,0,.54-.54A7.08,7.08,0,0,0,45.141,302.094Z" transform="translate(-31 -300)" fill="#45cedd"/>
        </g>
      </g>
    </g>
  </g>
</svg>
