<svg xmlns="http://www.w3.org/2000/svg" width="22" height="68" viewBox="0 0 22 68">
  <g id="Grupo_5414" data-name="Grupo 5414" transform="translate(-283 -655)">
    <g id="_02-shop" data-name="02-shop" transform="translate(283 701)">
      <g id="Glyph" transform="translate(0 0)">
        <path id="Caminho_1925" data-name="Caminho 1925" d="M22,32H0v.917A1.833,1.833,0,0,0,1.833,34.75h2.75a1.833,1.833,0,0,0,1.833-1.833A1.833,1.833,0,0,0,8.25,34.75h5.5a1.833,1.833,0,0,0,1.833-1.833,1.833,1.833,0,0,0,1.833,1.833h2.75A1.833,1.833,0,0,0,22,32.917V32Z" transform="translate(0 -24.667)" fill="#9b9b9b"/>
        <path id="Caminho_1926" data-name="Caminho 1926" d="M72.4,6.417,70.759.665A.917.917,0,0,0,69.878,0h-4.2l1.283,6.417Z" transform="translate(-50.628 0)" fill="#9b9b9b"/>
        <path id="Caminho_1927" data-name="Caminho 1927" d="M7.706,0h-4.2a.917.917,0,0,0-.881.665L.983,6.417h5.44Z" transform="translate(-0.758 0)" fill="#9b9b9b"/>
        <path id="Caminho_1928" data-name="Caminho 1928" d="M38.526,0H34.162L32.879,6.417h6.93Z" transform="translate(-25.344 0)" fill="#9b9b9b"/>
        <path id="Caminho_1929" data-name="Caminho 1929" d="M20.5,45.639a2.739,2.739,0,0,1-1.833-.7,2.739,2.739,0,0,1-1.833.7h-5.5a2.739,2.739,0,0,1-1.833-.7,2.739,2.739,0,0,1-1.833.7H4.917A2.732,2.732,0,0,1,4,45.479V55.722a.917.917,0,0,0,.917.917H6.75v-8.25a.917.917,0,0,1,.917-.917H12.25a.917.917,0,0,1,.917.917v8.25H23.25a.917.917,0,0,0,.917-.917V45.479a2.732,2.732,0,0,1-.917.16Zm.917,5.5a.917.917,0,0,1-.917.917H15.917A.917.917,0,0,1,15,51.139v-2.75a.917.917,0,0,1,.917-.917H20.5a.917.917,0,0,1,.917.917Z" transform="translate(-3.083 -34.639)" fill="#9b9b9b"/>
      </g>
    </g>
    <g id="_02-shop-2" data-name="02-shop" transform="translate(283 655)">
      <g id="Glyph-2" data-name="Glyph" transform="translate(0 0)">
        <path id="Caminho_1925-2" data-name="Caminho 1925" d="M22,32H0v.917A1.833,1.833,0,0,0,1.833,34.75h2.75a1.833,1.833,0,0,0,1.833-1.833A1.833,1.833,0,0,0,8.25,34.75h5.5a1.833,1.833,0,0,0,1.833-1.833,1.833,1.833,0,0,0,1.833,1.833h2.75A1.833,1.833,0,0,0,22,32.917V32Z" transform="translate(0 -24.667)" fill="#45cedd"/>
        <path id="Caminho_1926-2" data-name="Caminho 1926" d="M72.4,6.417,70.759.665A.917.917,0,0,0,69.878,0h-4.2l1.283,6.417Z" transform="translate(-50.628 0)" fill="#45cedd"/>
        <path id="Caminho_1927-2" data-name="Caminho 1927" d="M7.706,0h-4.2a.917.917,0,0,0-.881.665L.983,6.417h5.44Z" transform="translate(-0.758 0)" fill="#45cedd"/>
        <path id="Caminho_1928-2" data-name="Caminho 1928" d="M38.526,0H34.162L32.879,6.417h6.93Z" transform="translate(-25.344 0)" fill="#45cedd"/>
        <path id="Caminho_1929-2" data-name="Caminho 1929" d="M20.5,45.639a2.739,2.739,0,0,1-1.833-.7,2.739,2.739,0,0,1-1.833.7h-5.5a2.739,2.739,0,0,1-1.833-.7,2.739,2.739,0,0,1-1.833.7H4.917A2.732,2.732,0,0,1,4,45.479V55.722a.917.917,0,0,0,.917.917H6.75v-8.25a.917.917,0,0,1,.917-.917H12.25a.917.917,0,0,1,.917.917v8.25H23.25a.917.917,0,0,0,.917-.917V45.479a2.732,2.732,0,0,1-.917.16Zm.917,5.5a.917.917,0,0,1-.917.917H15.917A.917.917,0,0,1,15,51.139v-2.75a.917.917,0,0,1,.917-.917H20.5a.917.917,0,0,1,.917.917Z" transform="translate(-3.083 -34.639)" fill="#45cedd"/>
      </g>
    </g>
  </g>
</svg>
