<svg xmlns="http://www.w3.org/2000/svg" width="106.612" height="106.26" viewBox="0 0 106.612 106.26">
  <g id="Grupo_5405" data-name="Grupo 5405" transform="translate(-822.382 -503.212)">
    <g id="business-and-finance" transform="translate(820.702 501.02)">
      <g id="Grupo_2436" data-name="Grupo 2436" transform="translate(27.577 27.914)">
        <g id="XMLID_352_">
          <g id="Grupo_2435" data-name="Grupo 2435">
            <path id="Caminho_928" data-name="Caminho 928" d="M200.108,155.563c0,9.534-2.335,17.489-7.437,24.735a44.551,44.551,0,0,1-63.733,11.06,1.958,1.958,0,0,1-.206-2.953l59.675-59.675a1.958,1.958,0,0,1,2.953.206c.309.414,1.109,1.535,1.109,1.535A43.375,43.375,0,0,1,200.108,155.563Z" transform="translate(-128.155 -128.155)" fill="#faf7f7"/>
          </g>
        </g>
      </g>
      <path id="Caminho_929" data-name="Caminho 929" d="M92.569,47.925a44.384,44.384,0,0,1,26.92,8.832,1.958,1.958,0,0,1,.206,2.953L60.021,119.386a1.958,1.958,0,0,1-2.953-.206q-.657-.879-1.271-1.794l.036-.064a44.561,44.561,0,0,1,5.119-55.85l-.026-.026q.576-.592,1.176-1.166A44.475,44.475,0,0,1,92.569,47.925Z" transform="translate(-37.878 -37.231)" fill="#faf7f7"/>
      <g id="Grupo_2437" data-name="Grupo 2437" transform="translate(1.855 2.192)">
        <path id="Caminho_930" data-name="Caminho 930" d="M99.018,23.881A53.13,53.13,0,1,0,23.881,99.018,53.13,53.13,0,1,0,99.018,23.881Zm-70.411,64.4a1.958,1.958,0,0,1-2.953-.206Q25,87.2,24.383,86.281l.036-.064a44.56,44.56,0,0,1,6.3-57.013l-.026-.028a44.5,44.5,0,0,1,57.387-3.522,1.958,1.958,0,0,1,.206,2.953l-.631.631L93.9,35.011l.394-.394a1.958,1.958,0,0,1,2.953.206c.309.414,1.109,1.535,1.109,1.535a43.373,43.373,0,0,1,7.64,25.091c0,9.534-2.335,17.489-7.437,24.735a44.551,44.551,0,0,1-63.733,11.06,1.958,1.958,0,0,1-.206-2.953l1.241-1.241-6.442-5.578" transform="translate(-8.319 -8.319)" fill="#e8505b"/>
      </g>
      <g id="Grupo_2438" data-name="Grupo 2438" transform="translate(1.68 30.588)">
        <path id="Caminho_931" data-name="Caminho 931" d="M112.524,140.613a1.588,1.588,0,0,1,1.588,1.588v46.292a1.588,1.588,0,0,1-1.588,1.588H9.089A1.588,1.588,0,0,1,7.5,188.493V142.2a1.588,1.588,0,0,1,1.588-1.588Z" transform="translate(-7.501 -140.613)" fill="#80d261"/>
      </g>
      <path id="Caminho_932" data-name="Caminho 932" d="M71.942,140.613,28.773,183.782V142.2a1.588,1.588,0,0,1,1.588-1.588H9.089A1.588,1.588,0,0,0,7.5,142.2v46.292a1.588,1.588,0,0,0,1.588,1.588H49.671L99.14,140.613Z" transform="translate(-5.821 -110.025)" fill="#68ca44"/>
      <g id="Grupo_2439" data-name="Grupo 2439" transform="translate(8.119 37.027)">
        <path id="Caminho_933" data-name="Caminho 933" d="M123.454,207.2a7.78,7.78,0,0,1,7.78-7.78V178.392a7.78,7.78,0,0,1-7.78-7.78H45.28a7.78,7.78,0,0,1-7.78,7.78v21.031a7.78,7.78,0,0,1,7.78,7.78Z" transform="translate(-37.5 -170.612)" fill="#ade194"/>
      </g>
      <path id="Caminho_934" data-name="Caminho 934" d="M116.261,170.613h-27.2L54,205.675a.977.977,0,0,1-1.668-.691V170.613H45.28a7.78,7.78,0,0,1-7.78,7.78v21.031a7.78,7.78,0,0,1,7.78,7.78H79.67Z" transform="translate(-29.381 -133.586)" fill="#97da7b"/>
      <g id="Grupo_2441" data-name="Grupo 2441" transform="translate(36.69 37.027)">
        <g id="Grupo_2440" data-name="Grupo 2440">
          <circle id="Elipse_20" data-name="Elipse 20" cx="18.295" cy="18.295" r="18.295" fill="#ffc560"/>
        </g>
      </g>
      <path id="Caminho_935" data-name="Caminho 935" d="M172.876,194.9a18.314,18.314,0,0,0,13.6,13.6l22.02-22.019a18.315,18.315,0,0,0-13.6-13.6Z" transform="translate(-135.7 -135.363)" fill="#ffc560"/>
      <path id="Caminho_936" data-name="Caminho 936" d="M164.842,105.776l-58.235,58.235,6.442,5.578,58.04-58.04Z" transform="translate(-83.655 -82.666)" fill="#e8505b"/>
    </g>
  </g>
</svg>
