<svg xmlns="http://www.w3.org/2000/svg" width="95.994" height="110.869" viewBox="0 0 95.994 110.869">
  <g id="Grupo_5406" data-name="Grupo 5406" transform="translate(-828 -760.631)">
    <g id="surface1" transform="translate(827.999 760.631)">
      <path id="Caminho_969" data-name="Caminho 969" d="M161.053,340.426l-5.423-21.471a4.372,4.372,0,0,1,.2-2.747l6.744-16.28a4.377,4.377,0,0,1,8.087,3.351l-6.188,14.94,5.067,20.065a4.377,4.377,0,0,1-8.488,2.143Zm0,0" transform="translate(-121.825 -232.863)" fill="#748488"/>
      <path id="Caminho_970" data-name="Caminho 970" d="M254.013,330.718,234.8,328.449a4.377,4.377,0,0,1-3.84-3.894L229.4,309.576a4.377,4.377,0,1,1,8.707-.906l1.2,11.5,15.738,1.858a4.377,4.377,0,0,1-1.026,8.694Zm0,0" transform="translate(-179.704 -238.755)" fill="#55696e"/>
      <path id="Caminho_971" data-name="Caminho 971" d="M133.731,55.995a3.647,3.647,0,0,0-5.116.664L108.331,82.992H96.8L84.221,78.857,76.276,66.008a3.647,3.647,0,0,0-6.2,3.837l8.645,13.981a3.651,3.651,0,0,0,1.963,1.546l12.884,4.237v24.528a3.811,3.811,0,0,0,3.811,3.812h11.7a3.811,3.811,0,0,0,3.811-3.812V89.018c.214-.249,15.764-20.45,21.511-27.908A3.648,3.648,0,0,0,133.731,55.995Zm0,0" transform="translate(-54.47 -43.275)" fill="#f4b9a2"/>
      <path id="Caminho_972" data-name="Caminho 972" d="M174.91,143.843l-.012-.007-6.6,8.57h-1.2a3.681,3.681,0,0,1-7.361,0h-2.977l-8.794-2.892-1.9,7.054,7.463,2.454v24.529a3.811,3.811,0,0,0,3.812,3.811h11.7a3.811,3.811,0,0,0,3.811-3.811v-25.12c.1-.116,7.718-10,7.718-10Zm0,0" transform="translate(-114.436 -112.689)" fill="#ffda52"/>
      <path id="Caminho_973" data-name="Caminho 973" d="M205.537,110.025a7.559,7.559,0,1,1-7.559-7.56A7.56,7.56,0,0,1,205.537,110.025Zm0,0" transform="translate(-149.184 -80.277)" fill="#f4b9a2"/>
      <path id="Caminho_974" data-name="Caminho 974" d="M146.173,19.465a.92.92,0,0,1-.85-.524l-2.969-6.227a.561.561,0,0,1,.468-.8c4.945-.343,7.1-6.437,12.163-6.542a.919.919,0,0,1,.849.524l2.969,6.227a.561.561,0,0,1-.468.8C153.39,13.266,151.234,19.36,146.173,19.465Zm0,0" transform="translate(-111.485 -4.207)" fill="#39ae96"/>
      <path id="Caminho_975" data-name="Caminho 975" d="M173.158,31.159c-.716.318-1.468.233-1.65-.143a.56.56,0,0,1,.16-.687c.247-.119.614.13,1.086,0l-.462-.951c-.639.057-1.4.111-1.761-.64a1.335,1.335,0,0,1,.6-1.761l-.079-.165c-.04-.082.017-.2.146-.266.112-.054.26-.032.3.05l.071.147c.369-.165,1.1-.4,1.3,0,.077.158.128.533-.13.658-.194.094-.4-.04-.793.116l.416.858c.631-.06,1.387-.085,1.772.707a1.387,1.387,0,0,1-.536,1.841l.083.17c.04.082-.035.213-.146.267a.221.221,0,0,1-.3-.051ZM171.9,28.417l-.339-.7c-.239.181-.285.371-.217.511C171.429,28.4,171.632,28.432,171.9,28.417Zm.855.927.382.787a.436.436,0,0,0,.178-.544C173.224,29.393,173.016,29.342,172.757,29.344Zm0,0" transform="translate(-133.492 -20.771)" fill="#277867"/>
      <path id="Caminho_976" data-name="Caminho 976" d="M309.689,243.954a.92.92,0,0,1-.763-.644q-1.009-3.3-2.018-6.6a.561.561,0,0,1,.581-.724c4.941.39,7.973-5.319,12.994-4.676a.92.92,0,0,1,.763.644q1.008,3.3,2.018,6.6a.561.561,0,0,1-.581.724C317.742,238.888,314.71,244.6,309.689,243.954Zm0,0" transform="translate(-240.43 -181.185)" fill="#39ae96"/>
      <path id="Caminho_977" data-name="Caminho 977" d="M337.507,253.313c-.754.209-1.486.014-1.61-.385-.067-.211.023-.581.259-.655.262-.081.589.219,1.075.156l-.316-1.008c-.641-.039-1.4-.1-1.647-.893a1.333,1.333,0,0,1,.849-1.654l-.055-.175c-.027-.087.047-.2.184-.242.118-.037.262.007.289.094l.049.155c.39-.108,1.149-.237,1.284.193.053.168.048.545-.226.632-.206.064-.387-.1-.8,0l.284.909c.633.034,1.385.12,1.649.961a1.388,1.388,0,0,1-.8,1.742l.057.18c.027.087-.066.206-.184.243a.222.222,0,0,1-.289-.094Zm-.839-2.9-.232-.741c-.262.144-.336.325-.289.474C336.2,250.329,336.4,250.39,336.667,250.416Zm.71,1.043.262.835a.436.436,0,0,0,.256-.512C337.831,251.576,337.635,251.494,337.377,251.459Zm0,0" transform="translate(-262.614 -194.644)" fill="#277867"/>
      <path id="Caminho_978" data-name="Caminho 978" d="M376.079,135.818a.921.921,0,0,1-.968-.245l-4.7-5.053a.561.561,0,0,1,.206-.9c4.615-1.809,4.847-8.269,9.644-9.885a.92.92,0,0,1,.968.245l4.7,5.051a.561.561,0,0,1-.206.905C381.108,127.742,380.875,134.2,376.079,135.818Zm0,0" transform="translate(-290.085 -93.766)" fill="#39ae96"/>
      <path id="Caminho_979" data-name="Caminho 979" d="M399.327,150.385c-.588.519-1.33.662-1.617.359a.56.56,0,0,1-.052-.7c.2-.189.624-.06,1.034-.33l-.725-.77c-.593.246-1.3.525-1.872-.083a1.334,1.334,0,0,1,.042-1.859l-.125-.133a.222.222,0,0,1,.059-.3c.091-.084.239-.108.3-.041l.112.118c.3-.268.93-.716,1.239-.387.121.128.282.469.073.667-.157.148-.39.081-.721.348l.654.693a1.54,1.54,0,0,1,1.9.144,1.386,1.386,0,0,1,.04,1.917l.13.138c.063.066.03.213-.06.3a.221.221,0,0,1-.3.041Zm-2.021-2.239-.532-.565c-.174.244-.162.439-.054.553C396.851,148.272,397.054,148.241,397.307,148.146Zm1.095.629.6.636a.436.436,0,0,0,.008-.573C398.86,148.682,398.648,148.694,398.4,148.775Zm0,0" transform="translate(-310.04 -114.496)" fill="#277867"/>
      <path id="Caminho_980" data-name="Caminho 980" d="M5.817,179.029a.922.922,0,0,1-.968-.245l-4.7-5.052a.561.561,0,0,1,.206-.9c4.615-1.809,4.847-8.269,9.644-9.885a.92.92,0,0,1,.968.245l4.7,5.051a.561.561,0,0,1-.206.905C10.846,170.952,10.614,177.412,5.817,179.029Zm0,0" transform="translate(0 -127.62)" fill="#39ae96"/>
      <path id="Caminho_981" data-name="Caminho 981" d="M29.066,193.595c-.588.518-1.331.662-1.617.359a.562.562,0,0,1-.053-.7c.2-.188.625-.06,1.034-.329l-.725-.77c-.594.245-1.3.524-1.872-.083a1.334,1.334,0,0,1,.041-1.859l-.126-.133a.222.222,0,0,1,.06-.3c.09-.084.239-.108.3-.041l.112.118c.3-.268.931-.716,1.24-.388.121.129.282.47.073.667-.157.148-.391.081-.722.348l.654.694a1.539,1.539,0,0,1,1.9.144,1.387,1.387,0,0,1,.04,1.917l.13.138c.063.066.03.213-.06.3a.221.221,0,0,1-.3.042Zm-2.021-2.239-.533-.565c-.173.244-.161.439-.053.552C26.589,191.481,26.793,191.45,27.045,191.356Zm1.094.628.6.637a.435.435,0,0,0,.008-.573C28.6,191.891,28.387,191.9,28.139,191.984Zm0,0" transform="translate(-19.956 -148.349)" fill="#277867"/>
      <path id="Caminho_982" data-name="Caminho 982" d="M24.31,13.562a.921.921,0,0,1-.639.768l-6.583,2.065a.56.56,0,0,1-.727-.575c.354-4.944-5.376-7.935-4.77-12.96a.921.921,0,0,1,.639-.768L18.811.025A.562.562,0,0,1,19.54.6C19.186,5.546,24.916,8.537,24.31,13.562Zm0,0" transform="translate(-9.045)" fill="#39ae96"/>
      <path id="Caminho_983" data-name="Caminho 983" d="M33.743,31.88c.215.754.025,1.486-.373,1.614-.211.068-.582-.019-.657-.255-.085-.261.215-.59.148-1.075l-1.007.323c-.034.641-.085,1.4-.881,1.654a1.333,1.333,0,0,1-1.66-.837l-.174.056c-.087.028-.2-.046-.244-.183-.038-.118.005-.262.092-.29l.155-.05c-.111-.389-.245-1.148.184-1.286.167-.053.546-.052.634.222.066.206-.1.387,0,.8l.907-.291c.03-.634.111-1.386.949-1.655a1.388,1.388,0,0,1,1.748.789l.18-.058c.087-.028.206.064.244.183.044.137,0,.262-.091.29Zm-2.891.859-.739.238c.146.262.327.334.476.286C30.769,33.206,30.828,33.008,30.851,32.74Zm1.038-.717.833-.267a.435.435,0,0,0-.513-.253C32,31.568,31.923,31.765,31.889,32.023Zm0,0" transform="translate(-22.626 -23.933)" fill="#277867"/>
      <path id="Caminho_984" data-name="Caminho 984" d="M263.394,13.562a.92.92,0,0,1-.638.768l-6.582,2.065a.56.56,0,0,1-.728-.575c.354-4.944-5.377-7.935-4.77-12.96a.92.92,0,0,1,.638-.768L257.9.025a.561.561,0,0,1,.727.576C258.271,5.546,264,8.537,263.394,13.562Zm0,0" transform="translate(-196.359)" fill="#39ae96"/>
      <path id="Caminho_985" data-name="Caminho 985" d="M272.825,31.88c.215.754.025,1.486-.373,1.614-.21.068-.581-.019-.657-.255-.084-.261.215-.59.148-1.075l-1.007.323c-.034.641-.085,1.4-.88,1.654a1.334,1.334,0,0,1-1.66-.837l-.174.056c-.087.028-.2-.046-.244-.183-.038-.118.005-.262.092-.29l.155-.05c-.111-.389-.245-1.148.184-1.286.167-.053.546-.052.633.222.066.206-.095.387,0,.8l.907-.291c.029-.634.111-1.386.949-1.655a1.388,1.388,0,0,1,1.748.789l.18-.058c.087-.028.206.064.244.183.044.137,0,.262-.091.29Zm-2.89.859-.739.238c.146.262.327.334.475.286C269.851,33.206,269.911,33.008,269.934,32.74Zm1.038-.717.832-.267a.434.434,0,0,0-.513-.253C271.087,31.568,271.006,31.765,270.972,32.023Zm0,0" transform="translate(-209.937 -23.933)" fill="#277867"/>
    </g>
  </g>
</svg>
