<svg xmlns="http://www.w3.org/2000/svg" width="106.612" height="97.641" viewBox="0 0 106.612 97.641">
  <g id="Grupo_5404" data-name="Grupo 5404" transform="translate(-822.382 -250.258)">
    <g id="shop" transform="translate(822.382 240.401)">
      <path id="Caminho_937" data-name="Caminho 937" d="M102.169,78.367H4.442A4.455,4.455,0,0,0,0,82.809V149a4.455,4.455,0,0,0,4.442,4.442h97.727A4.455,4.455,0,0,0,106.612,149V82.809A4.455,4.455,0,0,0,102.169,78.367Z" transform="translate(0 -60.822)" fill="#40596b"/>
      <rect id="Retângulo_115" data-name="Retângulo 115" width="93.285" height="61.524" transform="translate(6.663 24.208)" fill="#fff"/>
      <rect id="Retângulo_116" data-name="Retângulo 116" width="40.646" height="11.994" transform="translate(32.872 92.617)" fill="#cdd6e0"/>
      <rect id="Retângulo_117" data-name="Retângulo 117" width="65.3" height="2.887" transform="translate(20.656 104.611)" fill="#f2f2f2"/>
      <rect id="Retângulo_118" data-name="Retângulo 118" width="40.646" height="3.332" transform="translate(32.872 92.617)" fill="#acb3ba"/>
      <path id="Caminho_938" data-name="Caminho 938" d="M145.434,117.029v56.415A3.508,3.508,0,0,1,141.881,177H71.473a3.508,3.508,0,0,1-3.554-3.554V117.029Z" transform="translate(-53.482 -91.266)" fill="#f2f2f2"/>
      <g id="Grupo_2442" data-name="Grupo 2442" transform="translate(33.094 41.532)">
        <path id="Caminho_939" data-name="Caminho 939" d="M249.574,191.216v8.44h-.889v-8.44Z" transform="translate(-228.918 -191.216)" fill="#fff"/>
        <path id="Caminho_940" data-name="Caminho 940" d="M249.574,343.771v8.44h-.889v-8.44h.889Z" transform="translate(-228.918 -311.343)" fill="#fff"/>
        <path id="Caminho_941" data-name="Caminho 941" d="M295.055,218l-6,6-.666-.666,6-6Z" transform="translate(-260.184 -211.785)" fill="#fff"/>
        <path id="Caminho_942" data-name="Caminho 942" d="M187.43,326.674l-6,6-.666-.666,6-6Z" transform="translate(-175.437 -297.356)" fill="#fff"/>
        <path id="Caminho_943" data-name="Caminho 943" d="M316.463,285.257v.889h-8.218v-.889Z" transform="translate(-275.817 -265.267)" fill="#fff"/>
        <path id="Caminho_944" data-name="Caminho 944" d="M163.908,285.7v.444H155.69v-.889h8.218Z" transform="translate(-155.69 -265.267)" fill="#fff"/>
        <path id="Caminho_945" data-name="Caminho 945" d="M295.878,331.784l-.666.666-5.775-5.775.666-.666Z" transform="translate(-261.007 -297.357)" fill="#fff"/>
        <path id="Caminho_946" data-name="Caminho 946" d="M187.43,223.336l-.666.666-6-6,.666-.666Z" transform="translate(-175.437 -211.786)" fill="#fff"/>
        <path id="Caminho_947" data-name="Caminho 947" d="M220.225,216.778c-.222,0-.444.222-.889.444l-2-4.664.889-.444Z" transform="translate(-204.234 -207.672)" fill="#fff"/>
        <path id="Caminho_948" data-name="Caminho 948" d="M272.47,344.256l-.889.444-2-4.664c.222,0,.444-.222.889-.444Z" transform="translate(-245.373 -308.053)" fill="#fff"/>
        <path id="Caminho_949" data-name="Caminho 949" d="M180.652,255.909c-.222.222-.222.444-.444.888l-4.664-2,.444-.889Z" transform="translate(-171.323 -240.584)" fill="#fff"/>
        <path id="Caminho_950" data-name="Caminho 950" d="M307.084,309.2l-.444.889-4.664-2c.222-.222.222-.444.444-.888Z" transform="translate(-270.88 -282.546)" fill="#fff"/>
        <path id="Caminho_951" data-name="Caminho 951" d="M180.652,307.044l-4.664,2-.444-.888,4.664-2C180.429,306.6,180.429,306.821,180.652,307.044Z" transform="translate(-171.323 -281.723)" fill="#fff"/>
        <path id="Caminho_952" data-name="Caminho 952" d="M307.084,254.8l-4.664,2c0-.222-.222-.444-.444-.888l4.664-2Z" transform="translate(-270.88 -240.584)" fill="#fff"/>
        <path id="Caminho_953" data-name="Caminho 953" d="M220.225,338.991l-2,4.664-.889-.444,2-4.664C219.781,338.769,220,338.769,220.225,338.991Z" transform="translate(-204.234 -307.23)" fill="#fff"/>
        <path id="Caminho_954" data-name="Caminho 954" d="M273.293,211.513l-1.777,4.664c-.222-.222-.444-.222-.888-.444l2-4.664Z" transform="translate(-246.196 -206.849)" fill="#fff"/>
      </g>
      <path id="Caminho_956" data-name="Caminho 956" d="M324.963,273.763l4.22,15.1,3.776-3.776,3.554,3.776,3.332-3.331-3.554-3.776,3.554-3.776Z" transform="translate(-255.888 -214.684)"/>
      <path id="Caminho_957" data-name="Caminho 957" d="M146.257,125.388v10.439a7.57,7.57,0,0,1-4.886,1.555,8.436,8.436,0,0,1-8.44-8.44,8.44,8.44,0,0,1-16.88,0,8.44,8.44,0,0,1-16.88,0,8.44,8.44,0,0,1-16.88,0,8.436,8.436,0,0,1-8.44,8.44,9.113,9.113,0,0,1-4.886-1.555V125.388Z" transform="translate(-54.305 -97.848)" fill="#e4eaef"/>
      <path id="Caminho_958" data-name="Caminho 958" d="M69.125,84.117H52.245L55.8,75.233H71.124Z" transform="translate(-41.14 -58.354)" fill="#ff7058"/>
      <path id="Caminho_959" data-name="Caminho 959" d="M148.537,84.117h-16.88l2-8.884H149.2Z" transform="translate(-103.671 -58.354)" fill="#cdd6e0"/>
      <path id="Caminho_960" data-name="Caminho 960" d="M227.949,84.117h-16.88l.666-8.884h15.548Z" transform="translate(-166.203 -58.354)" fill="#ff7058"/>
      <path id="Caminho_961" data-name="Caminho 961" d="M304.893,84.117h-16.88l-.666-8.884h15.548Z" transform="translate(-226.267 -58.354)" fill="#cdd6e0"/>
      <path id="Caminho_962" data-name="Caminho 962" d="M379.369,84.117h-16.88l-2-8.884h15.325Z" transform="translate(-283.863 -58.354)" fill="#ff7058"/>
      <g id="Grupo_2443" data-name="Grupo 2443" transform="translate(27.986 25.763)">
        <path id="Caminho_963" data-name="Caminho 963" d="M131.657,120.8a8.44,8.44,0,0,0,16.88,0v-3.776h-16.88V120.8Z" transform="translate(-131.657 -117.029)" fill="#acb3ba"/>
        <path id="Caminho_964" data-name="Caminho 964" d="M290.482,117.029V120.8a8.44,8.44,0,1,0,16.88,0v-3.776Z" transform="translate(-256.722 -117.029)" fill="#acb3ba"/>
      </g>
      <g id="Grupo_2444" data-name="Grupo 2444" transform="translate(11.105 25.763)">
        <path id="Caminho_965" data-name="Caminho 965" d="M52.245,120.8a8.44,8.44,0,0,0,16.88,0v-3.776H52.245Z" transform="translate(-52.245 -117.029)" fill="#f1543f"/>
        <path id="Caminho_966" data-name="Caminho 966" d="M211.069,120.8a8.44,8.44,0,0,0,16.88,0v-3.776h-16.88V120.8Z" transform="translate(-177.309 -117.029)" fill="#f1543f"/>
        <path id="Caminho_967" data-name="Caminho 967" d="M369.894,117.029V120.8a8.44,8.44,0,1,0,16.88,0v-3.776Z" transform="translate(-302.373 -117.029)" fill="#f1543f"/>
      </g>
      <ellipse id="Elipse_24" data-name="Elipse 24" cx="13.104" cy="13.326" rx="13.104" ry="13.326" transform="translate(40.202 48.64)" fill="#e8505b"/>
      <g id="Grupo_2445" data-name="Grupo 2445" transform="translate(44.422 53.748)">
        <path id="Caminho_968" data-name="Caminho 968" d="M215.643,260.9l-.444-1.555h10.217v-7.774H213.2l-.666-2.887H208.98v1.333h2.665l3.11,12.216H225.86V260.9Zm8.44-8.218v5.109h-9.106l-1.333-5.109Z" transform="translate(-208.98 -248.686)" fill="#fff"/>
        <circle id="Elipse_25" data-name="Elipse 25" cx="1.555" cy="1.555" r="1.555" transform="translate(7.107 14.437)" fill="#fff"/>
        <circle id="Elipse_26" data-name="Elipse 26" cx="1.555" cy="1.555" r="1.555" transform="translate(12.882 14.437)" fill="#fff"/>
      </g>
      <circle id="Elipse_28" data-name="Elipse 28" cx="2.665" cy="2.665" r="2.665" transform="translate(21.979 9.857)" fill="#87f6ce"/>
      <circle id="Elipse_29" data-name="Elipse 29" cx="2.665" cy="2.665" r="2.665" transform="translate(11.762 9.857)" fill="#ff7058"/>
      <circle id="Elipse_30" data-name="Elipse 30" cx="2.665" cy="2.665" r="2.665" transform="translate(1.545 9.857)" fill="#ffc560"/>
    </g>
  </g>
</svg>
