<svg xmlns="http://www.w3.org/2000/svg" xmlns:xlink="http://www.w3.org/1999/xlink" width="354" height="273" viewBox="0 0 354 273">
  <defs>
    <clipPath id="clip-path">
      <rect id="Retângulo_216" data-name="Retângulo 216" width="354" height="273" transform="translate(1263 391)" fill="#fff" stroke="#707070" stroke-width="1"/>
    </clipPath>
  </defs>
  <g id="img_retiro" transform="translate(-1263 -391)" clip-path="url(#clip-path)">
    <g id="Grupo_5" data-name="Grupo 5" transform="translate(1300.308 397)">
      <g id="Background_Complete" data-name="Background Complete" transform="translate(12.014 0)">
        <g id="Grupo_1566" data-name="Grupo 1566" transform="translate(191.477 156.065)">
          <g id="Grupo_1540" data-name="Grupo 1540">
            <g id="Grupo_1539" data-name="Grupo 1539">
              <g id="Grupo_1538" data-name="Grupo 1538">
                <g id="Grupo_1537" data-name="Grupo 1537">
                  <path id="Caminho_672" data-name="Caminho 672" d="M380.735,399.019c-16.442-6.507-23.98-24.039-27.322-40.612-.558-2.766-1.546-5.588-.812-8.306s3.39-5.085,6.121-4.512c2.266.476,3.716,2.636,5.321,4.326a16.5,16.5,0,0,0,7.895,4.62c1.963.493,4.256.534,5.756-.827,2.057-1.868,1.561-5.2.9-7.93q-1.859-7.62-3.716-15.238a26.147,26.147,0,0,1-1.1-8.3c.234-2.792,1.539-5.643,3.963-6.986s5.991-.608,7.173,1.934a25.877,25.877,0,0,1,.884,3.38c.344,1.115,1.17,2.244,2.321,2.3s2.074-.971,2.7-1.963c2.164-3.425,3.233-7.428,4.183-11.383s1.826-7.98,3.669-11.592,4.814-6.833,8.671-7.982,8.594.276,10.492,3.879.585,8.05-1.119,11.744a62.644,62.644,0,0,1-9.817,15.1,5.15,5.15,0,0,0-1.581,2.785c-.162,1.961,1.991,3.359,3.93,3.531,2.2.195,4.353-.54,6.54-.795s4.716.138,6,1.958c1.78,2.525.14,6-1.7,8.462A53.661,53.661,0,0,1,406.749,349.2c-1.834,1.211-3.794,2.357-5.078,4.151s-1.68,4.48-.246,6.17,4.092,1.712,6.1.823,3.622-2.477,5.447-3.708c3.415-2.306,8.32-3.2,11.492-.524a8.877,8.877,0,0,1,2.731,7.42,20.459,20.459,0,0,1-2.538,7.727,53.939,53.939,0,0,1-18.674,21.065c-7.985,5.081-15.854,7.81-25.252,6.7" transform="translate(-352.34 -289.56)" fill="#f5f5f5"/>
                </g>
              </g>
            </g>
          </g>
          <g id="Grupo_1545" data-name="Grupo 1545" transform="translate(30.194 1.459)">
            <g id="Grupo_1544" data-name="Grupo 1544">
              <g id="Grupo_1543" data-name="Grupo 1543">
                <g id="Grupo_1542" data-name="Grupo 1542">
                  <g id="Grupo_1541" data-name="Grupo 1541">
                    <path id="Caminho_673" data-name="Caminho 673" d="M400.372,388.568a251.324,251.324,0,0,1,3.462-28.636q.655-3.777,1.293-7.459c.431-2.447.857-4.874,1.42-7.222a125.649,125.649,0,0,1,4.012-13.307c1.481-4.171,3.038-8.075,4.521-11.714s2.945-7,4.4-10.013a99.527,99.527,0,0,1,7.919-13.679c1.057-1.536,1.917-2.7,2.511-3.483l.68-.884a2.035,2.035,0,0,1,.246-.29,2,2,0,0,1-.2.322l-.639.915c-.565.8-1.4,1.983-2.43,3.535a105.392,105.392,0,0,0-7.756,13.726c-1.431,3.012-2.862,6.377-4.333,10.016s-3,7.548-4.47,11.712a126.953,126.953,0,0,0-3.967,13.263c-.557,2.336-.977,4.742-1.406,7.2s-.854,4.938-1.291,7.455a257.45,257.45,0,0,0-3.5,28.573" transform="translate(-400.372 -291.882)" fill="#e0e0e0"/>
                  </g>
                </g>
              </g>
            </g>
          </g>
          <g id="Grupo_1550" data-name="Grupo 1550" transform="translate(25.395 25.691)">
            <g id="Grupo_1549" data-name="Grupo 1549">
              <g id="Grupo_1548" data-name="Grupo 1548">
                <g id="Grupo_1547" data-name="Grupo 1547">
                  <g id="Grupo_1546" data-name="Grupo 1546">
                    <path id="Caminho_674" data-name="Caminho 674" d="M403.851,359.514a5.76,5.76,0,0,1-.543-1.1c-.322-.72-.754-1.777-1.268-3.091-1.031-2.626-2.33-6.3-3.748-10.358s-2.765-7.706-3.833-10.309c-.53-1.3-.97-2.354-1.283-3.075a5.629,5.629,0,0,1-.434-1.148,5.592,5.592,0,0,1,.615,1.062c.37.7.862,1.728,1.436,3.017,1.158,2.575,2.566,6.217,3.985,10.28,1.389,4.007,2.644,7.633,3.6,10.4.441,1.248.814,2.3,1.113,3.145A5.559,5.559,0,0,1,403.851,359.514Z" transform="translate(-392.738 -330.429)" fill="#e0e0e0"/>
                  </g>
                </g>
              </g>
            </g>
          </g>
          <g id="Grupo_1555" data-name="Grupo 1555" transform="translate(36.507 39.886)">
            <g id="Grupo_1554" data-name="Grupo 1554">
              <g id="Grupo_1553" data-name="Grupo 1553">
                <g id="Grupo_1552" data-name="Grupo 1552">
                  <g id="Grupo_1551" data-name="Grupo 1551">
                    <path id="Caminho_675" data-name="Caminho 675" d="M443.953,353.017a7.834,7.834,0,0,1-1.36.5c-.881.294-2.159.712-3.721,1.279-3.132,1.109-7.4,2.794-12.037,4.857s-8.741,4.128-11.67,5.7c-1.472.776-2.645,1.436-3.459,1.887a7.722,7.722,0,0,1-1.29.661,7.7,7.7,0,0,1,1.187-.836c.784-.505,1.933-1.216,3.386-2.036,2.893-1.659,6.992-3.773,11.636-5.853a127.145,127.145,0,0,1,12.129-4.728c1.582-.524,2.88-.89,3.782-1.124A7.61,7.61,0,0,1,443.953,353.017Z" transform="translate(-410.415 -353.011)" fill="#e0e0e0"/>
                  </g>
                </g>
              </g>
            </g>
          </g>
          <g id="Grupo_1560" data-name="Grupo 1560" transform="translate(2.17 56.768)">
            <g id="Grupo_1559" data-name="Grupo 1559">
              <g id="Grupo_1558" data-name="Grupo 1558">
                <g id="Grupo_1557" data-name="Grupo 1557">
                  <g id="Grupo_1556" data-name="Grupo 1556">
                    <path id="Caminho_676" data-name="Caminho 676" d="M384.094,420.5a1.894,1.894,0,0,1-.342-.371l-.9-1.128c-.778-.982-1.867-2.433-3.189-4.243-2.647-3.618-6.145-8.732-9.93-14.426s-7.233-10.836-9.8-14.5c-1.254-1.782-2.287-3.247-3.054-4.337l-.824-1.185a1.848,1.848,0,0,1-.26-.435,1.9,1.9,0,0,1,.343.372l.9,1.126c.778.983,1.868,2.433,3.19,4.243,2.647,3.618,6.145,8.732,9.931,14.429s7.232,10.834,9.8,14.5c1.255,1.78,2.287,3.247,3.053,4.336l.825,1.185A1.857,1.857,0,0,1,384.094,420.5Z" transform="translate(-355.793 -379.866)" fill="#e0e0e0"/>
                  </g>
                </g>
              </g>
            </g>
          </g>
          <g id="Grupo_1565" data-name="Grupo 1565" transform="translate(30.471 71.304)">
            <g id="Grupo_1564" data-name="Grupo 1564">
              <g id="Grupo_1563" data-name="Grupo 1563">
                <g id="Grupo_1562" data-name="Grupo 1562">
                  <g id="Grupo_1561" data-name="Grupo 1561">
                    <path id="Caminho_677" data-name="Caminho 677" d="M443.882,402.992a1.927,1.927,0,0,1-.418.3l-1.247.776-4.61,2.8c-3.892,2.368-9.229,5.7-15.123,9.388s-11.269,6.977-15.211,9.265c-1.971,1.144-3.575,2.054-4.7,2.66l-1.295.691a1.9,1.9,0,0,1-.47.209,1.953,1.953,0,0,1,.417-.3l1.247-.774,4.609-2.8c3.892-2.367,9.231-5.7,15.125-9.39s11.266-6.975,15.208-9.263c1.971-1.145,3.574-2.054,4.7-2.66l1.295-.691A1.918,1.918,0,0,1,443.882,402.992Z" transform="translate(-400.814 -402.99)" fill="#e0e0e0"/>
                  </g>
                </g>
              </g>
            </g>
          </g>
        </g>
        <g id="Grupo_1575" data-name="Grupo 1575" transform="translate(0 74.08)">
          <g id="Grupo_1567" data-name="Grupo 1567" transform="translate(0 0)">
            <rect id="Retângulo_97" data-name="Retângulo 97" width="44.049" height="65.351" transform="translate(0 43.241) rotate(-79.008)" fill="#ebebeb"/>
          </g>
          <g id="Grupo_1570" data-name="Grupo 1570" transform="translate(8.502 0.559)">
            <g id="Grupo_1569" data-name="Grupo 1569">
              <g id="Grupo_1568" data-name="Grupo 1568">
                <path id="Caminho_678" data-name="Caminho 678" d="M125.42,172.491a4.545,4.545,0,0,1-.709.46l-2.09,1.218-7.747,4.388L89.145,192.874l-.212.118-.158-.185-.381-.448L69.118,169.578l-5.79-6.948-1.551-1.909a4.655,4.655,0,0,1-.51-.691,4.627,4.627,0,0,1,.6.614l1.636,1.836,5.933,6.825,19.409,22.668.381.448-.37-.067,25.814-14.162,7.838-4.224,2.144-1.121A4.522,4.522,0,0,1,125.42,172.491Z" transform="translate(-61.266 -160.03)" fill="#e0e0e0"/>
              </g>
            </g>
          </g>
          <g id="Grupo_1572" data-name="Grupo 1572" transform="translate(0.103 21.969)">
            <g id="Grupo_1571" data-name="Grupo 1571">
              <path id="Caminho_679" data-name="Caminho 679" d="M47.907,215.92c-.1-.128,5.873-5.118,13.344-11.145s13.616-10.812,13.719-10.684-5.871,5.117-13.346,11.146S48.01,216.048,47.907,215.92Z" transform="translate(-47.906 -194.089)" fill="#e0e0e0"/>
            </g>
          </g>
          <g id="Grupo_1574" data-name="Grupo 1574" transform="translate(48.592 25.572)">
            <g id="Grupo_1573" data-name="Grupo 1573">
              <path id="Caminho_680" data-name="Caminho 680" d="M125.046,199.822c.146-.075,3.77,6.735,8.094,15.208s7.712,15.4,7.566,15.479-3.769-6.734-8.094-15.21S124.9,199.9,125.046,199.822Z" transform="translate(-125.042 -199.821)" fill="#e0e0e0"/>
            </g>
          </g>
        </g>
        <g id="Grupo_1584" data-name="Grupo 1584" transform="translate(54.517 37.232)">
          <g id="Grupo_1576" data-name="Grupo 1576" transform="translate(0)">
            <path id="Caminho_681" data-name="Caminho 681" d="M178.361,128.7l-40.556,4.248-3.338-28.177,40.556-4.248Z" transform="translate(-134.467 -100.523)" fill="#f5f5f5"/>
          </g>
          <g id="Grupo_1579" data-name="Grupo 1579" transform="translate(0.17 0.324)">
            <g id="Grupo_1578" data-name="Grupo 1578">
              <g id="Grupo_1577" data-name="Grupo 1577">
                <path id="Caminho_682" data-name="Caminho 682" d="M175.293,101.04a2.758,2.758,0,0,1-.333.415l-1.008,1.138-3.762,4.14-12.544,13.593-.1.112-.129-.085-.313-.2-15.854-10.441-4.783-3.2-1.29-.886a3.046,3.046,0,0,1-.437-.331,2.888,2.888,0,0,1,.476.266l1.327.827,4.844,3.1L157.3,119.827l.313.2-.233.027L170,106.546l3.848-4.056,1.059-1.089A2.868,2.868,0,0,1,175.293,101.04Z" transform="translate(-134.737 -101.039)" fill="#e0e0e0"/>
              </g>
            </g>
          </g>
          <g id="Grupo_1581" data-name="Grupo 1581" transform="translate(3.506 14.285)">
            <g id="Grupo_1580" data-name="Grupo 1580">
              <path id="Caminho_683" data-name="Caminho 683" d="M140.046,141.711c-.085-.059,2.507-4.241,5.79-9.339s6.014-9.184,6.1-9.125-2.506,4.24-5.79,9.34S140.132,141.771,140.046,141.711Z" transform="translate(-140.044 -123.247)" fill="#e0e0e0"/>
            </g>
          </g>
          <g id="Grupo_1583" data-name="Grupo 1583" transform="translate(28.836 12.52)">
            <g id="Grupo_1582" data-name="Grupo 1582">
              <path id="Caminho_684" data-name="Caminho 684" d="M180.339,120.44c.072-.073,3.54,3.446,7.745,7.858s7.555,8.049,7.483,8.122-3.54-3.445-7.745-7.858S180.267,120.514,180.339,120.44Z" transform="translate(-180.338 -120.439)" fill="#e0e0e0"/>
            </g>
          </g>
        </g>
        <g id="Grupo_1593" data-name="Grupo 1593" transform="translate(19.748)">
          <g id="Grupo_1585" data-name="Grupo 1585" transform="translate(0.056)">
            <path id="Caminho_685" data-name="Caminho 685" d="M101.658,72.555,79.246,57.035,89.832,41.3l22.412,15.52Z" transform="translate(-79.246 -41.296)" fill="#f5f5f5"/>
          </g>
          <g id="Grupo_1588" data-name="Grupo 1588" transform="translate(10.585 0.239)">
            <g id="Grupo_1587" data-name="Grupo 1587">
              <g id="Grupo_1586" data-name="Grupo 1586">
                <path id="Caminho_686" data-name="Caminho 686" d="M118.409,57.2a1.859,1.859,0,0,1-.35.065l-1.007.138-3.711.46-12.283,1.426-.1.011-.028-.1-.07-.24C99.5,54.2,98.271,49.9,97.371,46.752c-.429-1.545-.779-2.8-1.03-3.706-.111-.421-.2-.757-.268-1.012A2.048,2.048,0,0,1,96,41.676a1.928,1.928,0,0,1,.126.342l.312,1c.269.9.644,2.147,1.106,3.682l3.557,12.18.07.24-.13-.087,12.289-1.35,3.718-.38,1.011-.091A1.812,1.812,0,0,1,118.409,57.2Z" transform="translate(-95.995 -41.676)" fill="#e0e0e0"/>
              </g>
            </g>
          </g>
          <g id="Grupo_1590" data-name="Grupo 1590" transform="translate(0 11.795)">
            <g id="Grupo_1589" data-name="Grupo 1589">
              <path id="Caminho_687" data-name="Caminho 687" d="M79.157,64.243c-.018-.067,3.119-1.058,7-2.212s7.052-2.035,7.069-1.968-3.119,1.057-7.005,2.212S79.175,64.31,79.157,64.243Z" transform="translate(-79.157 -60.059)" fill="#e0e0e0"/>
            </g>
          </g>
          <g id="Grupo_1592" data-name="Grupo 1592" transform="translate(21.637 16.761)">
            <g id="Grupo_1591" data-name="Grupo 1591">
              <path id="Caminho_688" data-name="Caminho 688" d="M113.6,67.958c.069-.005.293,3.29.5,7.359s.322,7.374.254,7.379-.294-3.289-.5-7.36S113.528,67.964,113.6,67.958Z" transform="translate(-113.576 -67.958)" fill="#e0e0e0"/>
            </g>
          </g>
        </g>
        <g id="Grupo_1594" data-name="Grupo 1594" transform="translate(172.38 26.919)">
          <path id="Caminho_689" data-name="Caminho 689" d="M371.938,109.106a24.989,24.989,0,1,0-46.528,12.625H325.4l.071.094c.958,1.615,2.159,2.77,3.371,4.466l14.509,19.219a4.513,4.513,0,0,0,7.2,0l14.267-18.9a53.794,53.794,0,0,0,3.629-4.808l.052-.068h-.01A24.832,24.832,0,0,0,371.938,109.106Zm-24.988,10.88a11,11,0,1,1,11-11A11,11,0,0,1,346.95,119.986Z" transform="translate(-321.961 -84.118)" fill="#f5f5f5"/>
        </g>
        <g id="Grupo_1595" data-name="Grupo 1595" transform="translate(214.515 81.317)">
          <path id="Caminho_690" data-name="Caminho 690" d="M415.939,184.128a13.475,13.475,0,1,0-25.09,6.808h-.008l.038.05c.517.871,1.164,1.494,1.818,2.408l7.824,10.364a2.433,2.433,0,0,0,3.884,0l7.694-10.193a29.042,29.042,0,0,0,1.957-2.593l.028-.036h-.005A13.391,13.391,0,0,0,415.939,184.128ZM402.464,190a5.93,5.93,0,1,1,5.93-5.93A5.93,5.93,0,0,1,402.464,190Z" transform="translate(-388.989 -170.653)" fill="#ebebeb"/>
        </g>
      </g>
      <g id="Floor" transform="translate(0 265.415)">
        <g id="Grupo_1596" data-name="Grupo 1596">
          <path id="Caminho_691" data-name="Caminho 691" d="M306.946,463.677c0,.09-62.308.163-139.15.163-76.87,0-139.164-.074-139.164-.163s62.295-.164,139.164-.164C244.638,463.513,306.946,463.587,306.946,463.677Z" transform="translate(-28.631 -463.513)" fill="#263238"/>
        </g>
      </g>
      <g id="Character" transform="translate(47.337 4.381)">
        <g id="Grupo_1776" data-name="Grupo 1776" transform="translate(0 14.039)">
          <g id="Grupo_1731" data-name="Grupo 1731" transform="translate(49.034)">
            <g id="Grupo_1730" data-name="Grupo 1730">
              <g id="Grupo_1729" data-name="Grupo 1729">
                <g id="Grupo_1728" data-name="Grupo 1728">
                  <g id="Grupo_1722" data-name="Grupo 1722" transform="translate(0 1.932)">
                    <g id="Grupo_1721" data-name="Grupo 1721">
                      <g id="Grupo_1617" data-name="Grupo 1617" transform="translate(4.562)">
                        <g id="Grupo_1616" data-name="Grupo 1616">
                          <g id="Grupo_1615" data-name="Grupo 1615">
                            <g id="Grupo_1605" data-name="Grupo 1605">
                              <g id="Grupo_1604" data-name="Grupo 1604">
                                <g id="Grupo_1603" data-name="Grupo 1603">
                                  <g id="Grupo_1602" data-name="Grupo 1602">
                                    <g id="Grupo_1601" data-name="Grupo 1601">
                                      <g id="Grupo_1600" data-name="Grupo 1600">
                                        <g id="Grupo_1599" data-name="Grupo 1599">
                                          <g id="Grupo_1598" data-name="Grupo 1598">
                                            <g id="Grupo_1597" data-name="Grupo 1597">
                                              <path id="Caminho_692" data-name="Caminho 692" d="M189.292,102.126l4.136,58.59A18.268,18.268,0,0,0,211.65,177.7h0a18.267,18.267,0,0,0,18.228-19.462c-.367-5.577-.7-10.144-.7-10.144s14.184-2.205,14.359-16.387c.1-8.191-1.311-26.778-2.523-41.018A18.6,18.6,0,0,0,222.477,73.67H213.91A26.247,26.247,0,0,0,189.292,102.126Z" transform="translate(-189.193 -73.67)" fill="#eebd9d"/>
                                            </g>
                                          </g>
                                        </g>
                                      </g>
                                    </g>
                                  </g>
                                </g>
                              </g>
                            </g>
                            <g id="Grupo_1614" data-name="Grupo 1614" transform="translate(21.521 68.962)">
                              <g id="Grupo_1613" data-name="Grupo 1613">
                                <g id="Grupo_1612" data-name="Grupo 1612">
                                  <g id="Grupo_1611" data-name="Grupo 1611">
                                    <g id="Grupo_1610" data-name="Grupo 1610">
                                      <g id="Grupo_1609" data-name="Grupo 1609">
                                        <g id="Grupo_1608" data-name="Grupo 1608">
                                          <g id="Grupo_1607" data-name="Grupo 1607">
                                            <g id="Grupo_1606" data-name="Grupo 1606">
                                              <path id="Caminho_693" data-name="Caminho 693" d="M241.917,188.629a32.976,32.976,0,0,1-18.488-5.255s4.37,10.207,18.522,8.93Z" transform="translate(-223.429 -183.374)" fill="#d79870"/>
                                            </g>
                                          </g>
                                        </g>
                                      </g>
                                    </g>
                                  </g>
                                </g>
                              </g>
                            </g>
                          </g>
                        </g>
                      </g>
                      <g id="Grupo_1700" data-name="Grupo 1700" transform="translate(23.135 21.471)">
                        <g id="Grupo_1699" data-name="Grupo 1699">
                          <g id="Grupo_1680" data-name="Grupo 1680" transform="translate(1.378 7.639)">
                            <g id="Grupo_1679" data-name="Grupo 1679">
                              <g id="Grupo_1678" data-name="Grupo 1678">
                                <g id="Grupo_1637" data-name="Grupo 1637" transform="translate(21.423)">
                                  <g id="Grupo_1626" data-name="Grupo 1626" transform="translate(1.997 3.207)">
                                    <g id="Grupo_1625" data-name="Grupo 1625">
                                      <g id="Grupo_1624" data-name="Grupo 1624">
                                        <g id="Grupo_1623" data-name="Grupo 1623">
                                          <g id="Grupo_1622" data-name="Grupo 1622">
                                            <g id="Grupo_1621" data-name="Grupo 1621">
                                              <g id="Grupo_1620" data-name="Grupo 1620">
                                                <g id="Grupo_1619" data-name="Grupo 1619">
                                                  <g id="Grupo_1618" data-name="Grupo 1618">
                                                    <path id="Caminho_694" data-name="Caminho 694" d="M262.228,126.909a2.025,2.025,0,0,1-1.952,2.044,1.937,1.937,0,0,1-2.088-1.826,2.025,2.025,0,0,1,1.951-2.044A1.938,1.938,0,0,1,262.228,126.909Z" transform="translate(-258.187 -125.079)" fill="#263238"/>
                                                  </g>
                                                </g>
                                              </g>
                                            </g>
                                          </g>
                                        </g>
                                      </g>
                                    </g>
                                  </g>
                                  <g id="Grupo_1636" data-name="Grupo 1636">
                                    <g id="Grupo_1635" data-name="Grupo 1635">
                                      <g id="Grupo_1634" data-name="Grupo 1634">
                                        <g id="Grupo_1633" data-name="Grupo 1633">
                                          <g id="Grupo_1632" data-name="Grupo 1632">
                                            <g id="Grupo_1631" data-name="Grupo 1631">
                                              <g id="Grupo_1630" data-name="Grupo 1630">
                                                <g id="Grupo_1629" data-name="Grupo 1629">
                                                  <g id="Grupo_1628" data-name="Grupo 1628">
                                                    <g id="Grupo_1627" data-name="Grupo 1627">
                                                      <path id="Caminho_695" data-name="Caminho 695" d="M263.015,122.105c-.251.264-1.785-.871-3.965-.865-2.177-.026-3.776,1.1-4.012.829-.116-.118.14-.595.836-1.1a5.556,5.556,0,0,1,3.212-.99A5.341,5.341,0,0,1,262.241,121C262.911,121.51,263.138,121.987,263.015,122.105Z" transform="translate(-255.01 -119.977)" fill="#263238"/>
                                                    </g>
                                                  </g>
                                                </g>
                                              </g>
                                            </g>
                                          </g>
                                        </g>
                                      </g>
                                    </g>
                                  </g>
                                </g>
                                <g id="Grupo_1657" data-name="Grupo 1657" transform="translate(0 0.407)">
                                  <g id="Grupo_1646" data-name="Grupo 1646" transform="translate(2.155 2.801)">
                                    <g id="Grupo_1645" data-name="Grupo 1645">
                                      <g id="Grupo_1644" data-name="Grupo 1644">
                                        <g id="Grupo_1643" data-name="Grupo 1643">
                                          <g id="Grupo_1642" data-name="Grupo 1642">
                                            <g id="Grupo_1641" data-name="Grupo 1641">
                                              <g id="Grupo_1640" data-name="Grupo 1640">
                                                <g id="Grupo_1639" data-name="Grupo 1639">
                                                  <g id="Grupo_1638" data-name="Grupo 1638">
                                                    <path id="Caminho_696" data-name="Caminho 696" d="M228.4,126.91a2.025,2.025,0,0,1-1.952,2.043,1.937,1.937,0,0,1-2.088-1.826,2.026,2.026,0,0,1,1.951-2.044A1.939,1.939,0,0,1,228.4,126.91Z" transform="translate(-224.36 -125.079)" fill="#263238"/>
                                                  </g>
                                                </g>
                                              </g>
                                            </g>
                                          </g>
                                        </g>
                                      </g>
                                    </g>
                                  </g>
                                  <g id="Grupo_1656" data-name="Grupo 1656">
                                    <g id="Grupo_1655" data-name="Grupo 1655">
                                      <g id="Grupo_1654" data-name="Grupo 1654">
                                        <g id="Grupo_1653" data-name="Grupo 1653">
                                          <g id="Grupo_1652" data-name="Grupo 1652">
                                            <g id="Grupo_1651" data-name="Grupo 1651">
                                              <g id="Grupo_1650" data-name="Grupo 1650">
                                                <g id="Grupo_1649" data-name="Grupo 1649">
                                                  <g id="Grupo_1648" data-name="Grupo 1648">
                                                    <g id="Grupo_1647" data-name="Grupo 1647">
                                                      <path id="Caminho_697" data-name="Caminho 697" d="M228.937,122.753c-.251.264-1.788-.872-3.965-.866-2.177-.026-3.777,1.1-4.013.829-.116-.118.138-.595.837-1.1a5.551,5.551,0,0,1,3.212-.991,5.338,5.338,0,0,1,3.156,1.019C228.831,122.157,229.059,122.634,228.937,122.753Z" transform="translate(-220.931 -120.624)" fill="#263238"/>
                                                    </g>
                                                  </g>
                                                </g>
                                              </g>
                                            </g>
                                          </g>
                                        </g>
                                      </g>
                                    </g>
                                  </g>
                                </g>
                                <g id="Grupo_1667" data-name="Grupo 1667" transform="translate(14.894 0.539)">
                                  <g id="Grupo_1666" data-name="Grupo 1666">
                                    <g id="Grupo_1665" data-name="Grupo 1665">
                                      <g id="Grupo_1664" data-name="Grupo 1664">
                                        <g id="Grupo_1663" data-name="Grupo 1663">
                                          <g id="Grupo_1662" data-name="Grupo 1662">
                                            <g id="Grupo_1661" data-name="Grupo 1661">
                                              <g id="Grupo_1660" data-name="Grupo 1660">
                                                <g id="Grupo_1659" data-name="Grupo 1659">
                                                  <g id="Grupo_1658" data-name="Grupo 1658">
                                                    <path id="Caminho_698" data-name="Caminho 698" d="M245.645,138.993a14.449,14.449,0,0,1,3.54-.639c.556-.057,1.083-.168,1.177-.548a2.83,2.83,0,0,0-.372-1.649q-.785-2.02-1.646-4.238c-2.286-6.034-3.94-10.995-3.7-11.084s2.294,4.727,4.58,10.761q.825,2.232,1.577,4.263a3.221,3.221,0,0,1,.289,2.184,1.4,1.4,0,0,1-.915.813,3.777,3.777,0,0,1-.945.131A14.189,14.189,0,0,1,245.645,138.993Z" transform="translate(-244.624 -120.834)" fill="#263238"/>
                                                  </g>
                                                </g>
                                              </g>
                                            </g>
                                          </g>
                                        </g>
                                      </g>
                                    </g>
                                  </g>
                                </g>
                                <g id="Grupo_1677" data-name="Grupo 1677" transform="translate(9.147 20.205)">
                                  <g id="Grupo_1676" data-name="Grupo 1676">
                                    <g id="Grupo_1675" data-name="Grupo 1675">
                                      <g id="Grupo_1674" data-name="Grupo 1674">
                                        <g id="Grupo_1673" data-name="Grupo 1673">
                                          <g id="Grupo_1672" data-name="Grupo 1672">
                                            <g id="Grupo_1671" data-name="Grupo 1671">
                                              <g id="Grupo_1670" data-name="Grupo 1670">
                                                <g id="Grupo_1669" data-name="Grupo 1669">
                                                  <g id="Grupo_1668" data-name="Grupo 1668">
                                                    <path id="Caminho_699" data-name="Caminho 699" d="M235.836,152.119c.355-.021.359,2.345,2.384,4.024s4.543,1.419,4.561,1.75c.033.148-.562.459-1.626.488a5.89,5.89,0,0,1-3.808-1.327,5.133,5.133,0,0,1-1.848-3.374C235.41,152.691,235.674,152.105,235.836,152.119Z" transform="translate(-235.482 -152.119)" fill="#263238"/>
                                                  </g>
                                                </g>
                                              </g>
                                            </g>
                                          </g>
                                        </g>
                                      </g>
                                    </g>
                                  </g>
                                </g>
                              </g>
                            </g>
                          </g>
                          <g id="Grupo_1689" data-name="Grupo 1689">
                            <g id="Grupo_1688" data-name="Grupo 1688">
                              <g id="Grupo_1687" data-name="Grupo 1687">
                                <g id="Grupo_1686" data-name="Grupo 1686">
                                  <g id="Grupo_1685" data-name="Grupo 1685">
                                    <g id="Grupo_1684" data-name="Grupo 1684">
                                      <g id="Grupo_1683" data-name="Grupo 1683">
                                        <g id="Grupo_1682" data-name="Grupo 1682">
                                          <g id="Grupo_1681" data-name="Grupo 1681">
                                            <path id="Caminho_700" data-name="Caminho 700" d="M228.685,109.459c-.215.593-2.391.312-4.947.62-2.564.257-4.625,1.005-4.965.474-.151-.254.208-.812,1.042-1.385a8.665,8.665,0,0,1,7.551-.833C228.3,108.712,228.778,109.178,228.685,109.459Z" transform="translate(-218.74 -107.826)" fill="#263238"/>
                                          </g>
                                        </g>
                                      </g>
                                    </g>
                                  </g>
                                </g>
                              </g>
                            </g>
                          </g>
                          <g id="Grupo_1698" data-name="Grupo 1698" transform="translate(22.583 1.203)">
                            <g id="Grupo_1697" data-name="Grupo 1697">
                              <g id="Grupo_1696" data-name="Grupo 1696">
                                <g id="Grupo_1695" data-name="Grupo 1695">
                                  <g id="Grupo_1694" data-name="Grupo 1694">
                                    <g id="Grupo_1693" data-name="Grupo 1693">
                                      <g id="Grupo_1692" data-name="Grupo 1692">
                                        <g id="Grupo_1691" data-name="Grupo 1691">
                                          <g id="Grupo_1690" data-name="Grupo 1690">
                                            <path id="Caminho_701" data-name="Caminho 701" d="M262.085,112c-.383.495-1.885-.019-3.69-.043-1.8-.087-3.334.333-3.686-.185-.154-.251.086-.747.754-1.216a5.343,5.343,0,0,1,5.943.184C262.045,111.245,262.254,111.755,262.085,112Z" transform="translate(-254.665 -109.739)" fill="#263238"/>
                                          </g>
                                        </g>
                                      </g>
                                    </g>
                                  </g>
                                </g>
                              </g>
                            </g>
                          </g>
                        </g>
                      </g>
                      <g id="Grupo_1720" data-name="Grupo 1720" transform="translate(0 38.654)">
                        <g id="Grupo_1709" data-name="Grupo 1709">
                          <g id="Grupo_1708" data-name="Grupo 1708">
                            <g id="Grupo_1707" data-name="Grupo 1707">
                              <g id="Grupo_1706" data-name="Grupo 1706">
                                <g id="Grupo_1705" data-name="Grupo 1705">
                                  <g id="Grupo_1704" data-name="Grupo 1704">
                                    <g id="Grupo_1703" data-name="Grupo 1703">
                                      <g id="Grupo_1702" data-name="Grupo 1702">
                                        <g id="Grupo_1701" data-name="Grupo 1701">
                                          <path id="Caminho_702" data-name="Caminho 702" d="M191.378,135.607c-.241-.1-9.744-2.882-9.434,6.814s9.979,7.384,9.988,7.106S191.378,135.607,191.378,135.607Z" transform="translate(-181.936 -135.16)" fill="#eebd9d"/>
                                        </g>
                                      </g>
                                    </g>
                                  </g>
                                </g>
                              </g>
                            </g>
                          </g>
                        </g>
                        <g id="Grupo_1719" data-name="Grupo 1719" transform="translate(2.469 3.175)">
                          <g id="Grupo_1718" data-name="Grupo 1718">
                            <g id="Grupo_1717" data-name="Grupo 1717">
                              <g id="Grupo_1716" data-name="Grupo 1716">
                                <g id="Grupo_1715" data-name="Grupo 1715">
                                  <g id="Grupo_1714" data-name="Grupo 1714">
                                    <g id="Grupo_1713" data-name="Grupo 1713">
                                      <g id="Grupo_1712" data-name="Grupo 1712">
                                        <g id="Grupo_1711" data-name="Grupo 1711">
                                          <g id="Grupo_1710" data-name="Grupo 1710">
                                            <path id="Caminho_703" data-name="Caminho 703" d="M190.311,147.823c-.043-.03-.165.124-.446.264a1.693,1.693,0,0,1-1.262.066c-1.036-.343-1.951-1.942-2.054-3.687a5.571,5.571,0,0,1,.4-2.433,1.95,1.95,0,0,1,1.229-1.337.86.86,0,0,1,1.011.431c.138.267.083.463.135.478.028.023.2-.169.113-.567a1.082,1.082,0,0,0-.4-.6,1.279,1.279,0,0,0-.942-.217,2.372,2.372,0,0,0-1.716,1.56,5.741,5.741,0,0,0-.5,2.721c.125,1.952,1.183,3.748,2.6,4.109a1.811,1.811,0,0,0,1.536-.306C190.3,148.058,190.345,147.84,190.311,147.823Z" transform="translate(-185.864 -140.21)" fill="#d79870"/>
                                          </g>
                                        </g>
                                      </g>
                                    </g>
                                  </g>
                                </g>
                              </g>
                            </g>
                          </g>
                        </g>
                      </g>
                    </g>
                  </g>
                  <g id="Grupo_1727" data-name="Grupo 1727" transform="translate(2.338)">
                    <g id="Grupo_1726" data-name="Grupo 1726">
                      <g id="Grupo_1725" data-name="Grupo 1725">
                        <g id="Grupo_1724" data-name="Grupo 1724">
                          <g id="Grupo_1723" data-name="Grupo 1723">
                            <path id="Caminho_704" data-name="Caminho 704" d="M187.365,111.3c1.479-.358,4.037,1.007,4.668,2.392s.769,2.953,1.4,4.339,2.05,2.638,3.53,2.288a2.983,2.983,0,0,0,2.02-2.213,8.2,8.2,0,0,0,.029-3.127c-.571-4.528-1.523-9.018-1.705-13.578s.468-9.3,2.862-13.183,6.792-6.742,11.342-6.375c3.014.243,5.777,1.814,8.771,2.234a11.846,11.846,0,0,0,9.841-3.285c.326-.324,1.839-1.322,1.839-1.322,0-.235-.221-2.26-1.02-3C225,70.98,214.3,69.447,206.453,71.421s-15.2,7.513-18.573,14.864-2.374,17.577-.515,25.016" transform="translate(-185.655 -70.597)" fill="#263238"/>
                          </g>
                        </g>
                      </g>
                    </g>
                  </g>
                </g>
              </g>
            </g>
          </g>
          <g id="Grupo_1744" data-name="Grupo 1744" transform="translate(0 85.074)">
            <g id="Grupo_1738" data-name="Grupo 1738">
              <path id="Caminho_705" data-name="Caminho 705" d="M218.473,209.407l-11.8-2.6-8.552-.875c-.252.688-4.16,10.816-14.563,13.083-8.29,1.806-17.159-2.152-21.845-9.926l-39.041,17.118-18.737,45.752L140.246,282.7l1.13,37.7-6.841,47.547,102.739.071q-1.822-52.9-3.643-105.793" transform="translate(-103.934 -205.932)" fill="#e8505b"/>
              <g id="Grupo_1735" data-name="Grupo 1735" transform="translate(77.932 11.124)">
                <path id="Caminho_709" data-name="Caminho 709" d="M227.907,279.106a.752.752,0,0,1,.158-.072l.471-.182c.421-.142,1.019-.407,1.782-.761a23.48,23.48,0,0,0,5.781-4.111,45.791,45.791,0,0,0,6.619-8.211,116.212,116.212,0,0,0,6.45-11.239,195.065,195.065,0,0,0,9.158-21.7c1.03-2.836,1.829-5.143,2.387-6.736l.646-1.833.175-.474a.72.72,0,0,1,.07-.158.64.64,0,0,1-.039.168c-.038.128-.086.287-.145.485-.141.448-.338,1.067-.587,1.853-.522,1.605-1.287,3.926-2.29,6.773a181.572,181.572,0,0,1-9.084,21.772,112.361,112.361,0,0,1-6.49,11.256,44.994,44.994,0,0,1-6.712,8.214,22.749,22.749,0,0,1-5.884,4.056,16.614,16.614,0,0,1-1.815.708l-.483.152A.639.639,0,0,1,227.907,279.106Z" transform="translate(-227.907 -223.628)" fill="#263238"/>
              </g>
              <g id="Grupo_1736" data-name="Grupo 1736" transform="translate(76.838 49.946)">
                <path id="Caminho_710" data-name="Caminho 710" d="M226.167,315.864a2.269,2.269,0,0,1,.357-.272l1.055-.729c.913-.637,2.225-1.57,3.8-2.781,3.169-2.408,7.327-6.008,11.8-10.12,2.244-2.051,4.393-3.991,6.251-5.849a48.357,48.357,0,0,0,4.608-5.23,28.878,28.878,0,0,0,2.522-3.962c.273-.485.444-.881.578-1.142a2.339,2.339,0,0,1,.215-.393,2.233,2.233,0,0,1-.155.421c-.116.27-.268.677-.525,1.173a26.057,26.057,0,0,1-2.45,4.041,45.981,45.981,0,0,1-4.581,5.306c-1.854,1.878-4,3.828-6.244,5.878a154.83,154.83,0,0,1-11.882,10.062c-1.6,1.191-2.936,2.1-3.872,2.7-.468.3-.84.526-1.09.678A2.331,2.331,0,0,1,226.167,315.864Z" transform="translate(-226.167 -285.385)"/>
              </g>
              <g id="Grupo_1737" data-name="Grupo 1737" transform="translate(59.213 102.308)">
                <path id="Caminho_711" data-name="Caminho 711" d="M198.129,416.635a.68.68,0,0,1,.078-.147l.257-.414c.23-.362.583-.887,1.054-1.551.947-1.326,2.4-3.182,4.327-5.368,3.871-4.348,9.3-10.274,15.272-16.836l15.359-16.76,4.682-5.053,1.286-1.362.34-.349a.622.622,0,0,1,.124-.111.656.656,0,0,1-.1.134l-.317.37-1.24,1.4-4.605,5.124-15.288,16.824-15.34,16.769c-1.942,2.162-3.422,3.991-4.4,5.29-.486.651-.854,1.164-1.1,1.512l-.284.4A.6.6,0,0,1,198.129,416.635Z" transform="translate(-198.128 -368.682)" fill="#263238"/>
              </g>
            </g>
            <path id="Caminho_712" data-name="Caminho 712" d="M284.839,210.954c.54.81,12.689,2.16,15.658,5.13s32.666,25.647,32.666,25.647L312.01,270.261l-13.669-3.009Z" transform="translate(-171.118 -207.797)" fill="#e8505b"/>
            <path id="Caminho_713" data-name="Caminho 713" d="M342,255.557l-23.743,29.911,6.166,1.357L345.573,258.3Z" transform="translate(-183.528 -224.362)" opacity="0.4"/>
            <g id="Grupo_1739" data-name="Grupo 1739" transform="translate(119.455 8.471)">
              <path id="Caminho_714" data-name="Caminho 714" d="M294.7,243.793a6.039,6.039,0,0,1-.246-.993,11.338,11.338,0,0,1-.208-1.183c-.061-.465-.153-.992-.184-1.582-.049-.588-.1-1.234-.092-1.929-.028-.695.019-1.436.053-2.217a28.6,28.6,0,0,1,2.443-9.818c.336-.705.642-1.382.992-1.983.322-.616.666-1.164.985-1.66.3-.507.632-.929.9-1.311a11.519,11.519,0,0,1,.738-.948,6.032,6.032,0,0,1,.683-.762,6.079,6.079,0,0,1-.582.84c-.2.26-.438.583-.69.975s-.568.817-.857,1.328c-.3.5-.634,1.05-.942,1.666-.336.6-.63,1.275-.955,1.977a29.964,29.964,0,0,0-2.418,9.718c-.042.771-.1,1.5-.083,2.193-.016.688.017,1.328.052,1.913.015.587.091,1.111.135,1.575s.1.861.151,1.185A6.134,6.134,0,0,1,294.7,243.793Z" transform="translate(-293.961 -219.407)" fill="#263238"/>
            </g>
            <g id="Grupo_1740" data-name="Grupo 1740" transform="translate(124.742 44.565)">
              <path id="Caminho_715" data-name="Caminho 715" d="M307.327,288.552a62.025,62.025,0,0,1-2.626-5.8,61.943,61.943,0,0,1-2.325-5.928,123.84,123.84,0,0,1,4.951,11.728Z" transform="translate(-302.372 -276.824)" fill="#263238"/>
            </g>
            <g id="Grupo_1741" data-name="Grupo 1741" transform="translate(22.903 22.567)">
              <path id="Caminho_716" data-name="Caminho 716" d="M153.777,254.847c-.05.027-.559-.908-1.52-2.324a32.618,32.618,0,0,0-9.521-9.24c-1.444-.918-2.394-1.4-2.368-1.45a3.3,3.3,0,0,1,.692.287c.438.2,1.055.527,1.8.966a28.934,28.934,0,0,1,9.593,9.31c.46.729.805,1.336,1.018,1.768A3.271,3.271,0,0,1,153.777,254.847Z" transform="translate(-140.367 -241.831)" fill="#263238"/>
            </g>
            <path id="Caminho_717" data-name="Caminho 717" d="M103.934,308.862l1.459-3.563,40.175,10.937-1.593,4.47Z" transform="translate(-103.934 -242.835)" opacity="0.4"/>
          </g>
          <g id="Grupo_1751" data-name="Grupo 1751" transform="translate(0 141.827)">
            <g id="Grupo_1749" data-name="Grupo 1749">
              <g id="Grupo_1748" data-name="Grupo 1748" transform="translate(66.339)">
                <path id="Caminho_720" data-name="Caminho 720" d="M209.464,324.428l4.844-7.062s3.331-11.584,2.879-13.2-1.925-7.657-1.577-7.728,3.975-1.423,5.941,3.42a31.7,31.7,0,0,1,1.756,9.554,2.2,2.2,0,0,0,2.639,2.046c3.351-.686,8.926-1.737,10.25-1.42a6.553,6.553,0,0,1,3.813,3.734c.168.82-1.16,2.677-1.16,2.677a5.051,5.051,0,0,1,2.137,2.1c.068.172.126.339.177.5a3.048,3.048,0,0,1-.674,2.948l-.512.562s2.039.559,2.291,1.727a6.965,6.965,0,0,1-.07,2.576l-1.914,1.977a3.225,3.225,0,0,1,.993,1.871c.1,1.077-2.773,3.738-2.773,3.738l-12.327,4.419-4.891,1.247Z" transform="translate(-209.464 -296.213)" fill="#eebd9d"/>
                <g id="Grupo_1745" data-name="Grupo 1745" transform="translate(20.859 20.228)">
                  <path id="Caminho_721" data-name="Caminho 721" d="M251.208,328.41c.013.092-1.91.441-4.27.923a43.568,43.568,0,0,1-4.292.819,4.837,4.837,0,0,1,1.215-.421c.763-.215,1.827-.477,3.012-.719s2.266-.416,3.052-.516A4.774,4.774,0,0,1,251.208,328.41Z" transform="translate(-242.646 -328.391)" fill="#aa6550"/>
                </g>
                <g id="Grupo_1746" data-name="Grupo 1746" transform="translate(23.93 26.331)">
                  <path id="Caminho_722" data-name="Caminho 722" d="M254.15,338.112a36.54,36.54,0,0,1-6.618,2.02,36.759,36.759,0,0,1,6.618-2.02Z" transform="translate(-247.531 -338.1)" fill="#aa6550"/>
                </g>
                <g id="Grupo_1747" data-name="Grupo 1747" transform="translate(24.223 32.352)">
                  <path id="Caminho_723" data-name="Caminho 723" d="M255.059,347.686a45.427,45.427,0,0,1-7.06,3.087,45.427,45.427,0,0,1,7.06-3.087Z" transform="translate(-247.998 -347.678)" fill="#aa6550"/>
                </g>
              </g>
              <path id="Caminho_724" data-name="Caminho 724" d="M141.867,374.809,187.2,344.4l-11.436-20.719-41.379,21.28,4.695-22.359L111,314.292l-7.007,38.257h0c-1.084,17.022,12.568,30.766,29.028,26.3h0A29.977,29.977,0,0,0,141.867,374.809Z" transform="translate(-103.934 -302.927)" fill="#eebd9d"/>
            </g>
            <g id="Grupo_1750" data-name="Grupo 1750" transform="translate(24.149 41.6)">
              <path id="Caminho_725" data-name="Caminho 725" d="M142.665,374.825a1.886,1.886,0,0,1-.156-.57,9.539,9.539,0,0,1-.157-1.6,11.131,11.131,0,0,1,4.59-9.2,9.544,9.544,0,0,1,1.375-.839,1.866,1.866,0,0,1,.549-.218c.028.052-.734.412-1.785,1.241a11.715,11.715,0,0,0-4.5,9.018C142.553,373.991,142.724,374.815,142.665,374.825Z" transform="translate(-142.349 -362.39)" fill="#d79870"/>
            </g>
          </g>
          <g id="Grupo_1775" data-name="Grupo 1775" transform="translate(90.774 121.473)">
            <g id="Grupo_1753" data-name="Grupo 1753" transform="translate(50.118)">
              <path id="Caminho_726" data-name="Caminho 726" d="M328.062,289.9c.284-.387,32.288,19.109,32.288,19.109l10.256,46.741,14.765,5.417s4.61-52.012,1.1-60.111-39.066-37.222-39.066-37.222Z" transform="translate(-328.062 -263.834)" fill="#eebd9d"/>
              <g id="Grupo_1752" data-name="Grupo 1752" transform="translate(32.972 41.586)">
                <path id="Caminho_727" data-name="Caminho 727" d="M386.819,329.991a10.42,10.42,0,0,1-6.305,4.057,19.168,19.168,0,0,0,6.305-4.057Z" transform="translate(-380.513 -329.989)" fill="#d79870"/>
              </g>
            </g>
            <g id="Grupo_1769" data-name="Grupo 1769" transform="translate(0 24.152)">
              <path id="Caminho_728" data-name="Caminho 728" d="M266.835,304.27l2.5,44.857,51.145-3.457-1.548-33.393-7.445-10.023Z" transform="translate(-255.205 -302.254)" fill="#263238"/>
              <path id="Caminho_729" data-name="Caminho 729" d="M248.335,375.133c.155.862,4.5,41.49,4.5,41.49l76.12-5.294,12.883-1.724-5.94-37.835-9.1-2.178Z" transform="translate(-248.335 -327.262)" fill="#ffe6b6"/>
              <path id="Caminho_730" data-name="Caminho 730" d="M326.794,369.593l-78.459,5.54c.155.862,4.5,41.49,4.5,41.49l79.25-5.512Z" transform="translate(-248.335 -327.262)" opacity="0.4"/>
              <path id="Caminho_731" data-name="Caminho 731" d="M312.818,346.188l-43.478,2.939-2.5-44.857,44.656-2.016Z" transform="translate(-255.205 -302.254)" fill="#006b6f"/>
              <path id="Caminho_732" data-name="Caminho 732" d="M292.621,304.067l.916,13.824,2.326-1.331,1.292,1.331,1.6-1.331,2.476,1.331V303.678Z" transform="translate(-264.782 -302.783)" fill="#149094"/>
              <g id="Grupo_1757" data-name="Grupo 1757" transform="translate(43.037 11.207)">
                <path id="Caminho_733" data-name="Caminho 733" d="M319.774,353.75,316.8,320.083l29.064,8.01,2.8,23.236Z" transform="translate(-316.797 -320.082)" fill="#45cedd"/>
                <g id="Grupo_1754" data-name="Grupo 1754">
                  <path id="Caminho_734" data-name="Caminho 734" d="M345.861,328.093a1.225,1.225,0,0,1-.18.241l-.561.662-2.137,2.44-7.428,8.329-.113.127-.118-.124-3.955-4.146L321.016,324.68l-3.11-3.342-.834-.92a.217.217,0,1,1,.048-.045l.878.878,3.186,3.27L331.606,335.4l3.947,4.154-.231,0,7.513-8.251,2.205-2.378.6-.627A1.262,1.262,0,0,1,345.861,328.093Z" transform="translate(-316.797 -320.082)" fill="#263238"/>
                </g>
                <g id="Grupo_1755" data-name="Grupo 1755" transform="translate(3.226 14.248)">
                  <path id="Caminho_735" data-name="Caminho 735" d="M331.472,342.749c.08.043-1.992,4.017-4.626,8.875s-4.835,8.763-4.915,8.72,1.992-4.016,4.627-8.876S331.393,342.705,331.472,342.749Z" transform="translate(-321.928 -342.748)" fill="#263238"/>
                </g>
                <g id="Grupo_1756" data-name="Grupo 1756" transform="translate(22.47 16.702)">
                  <path id="Caminho_736" data-name="Caminho 736" d="M361.262,361.2c-.078.047-2.092-3.172-4.5-7.188s-4.3-7.31-4.219-7.356,2.092,3.171,4.5,7.188S361.34,361.15,361.262,361.2Z" transform="translate(-352.542 -346.652)" fill="#263238"/>
                </g>
              </g>
              <g id="Grupo_1761" data-name="Grupo 1761" transform="translate(59.721 22.121)">
                <path id="Caminho_737" data-name="Caminho 737" d="M345.235,358.884l-1.9-21.44,18.508,5.1,1.784,14.8Z" transform="translate(-343.339 -337.443)" fill="#f2e08b"/>
                <g id="Grupo_1758" data-name="Grupo 1758">
                  <path id="Caminho_739" data-name="Caminho 739" d="M361.847,342.545a3.9,3.9,0,0,1-.458.588l-1.348,1.565-4.714,5.318-.113.128-.118-.124-2.521-2.638c-2.584-2.713-4.909-5.182-6.58-6.98l-1.967-2.141a6.585,6.585,0,0,1-.689-.816,6.685,6.685,0,0,1,.781.728l2.042,2.069c1.714,1.757,4.066,4.2,6.65,6.914l2.512,2.647-.231,0,4.8-5.24,1.416-1.5A3.906,3.906,0,0,1,361.847,342.545Z" transform="translate(-343.339 -337.443)" fill="#263238"/>
                </g>
                <g id="Grupo_1759" data-name="Grupo 1759" transform="translate(2.053 9.074)">
                  <path id="Caminho_740" data-name="Caminho 740" d="M352.684,351.878a123.924,123.924,0,0,1-6.076,11.2,124.331,124.331,0,0,1,6.076-11.2Z" transform="translate(-346.604 -351.877)" fill="#263238"/>
                </g>
                <g id="Grupo_1760" data-name="Grupo 1760" transform="translate(14.308 10.636)">
                  <path id="Caminho_741" data-name="Caminho 741" d="M371.654,363.626a89.346,89.346,0,0,1-5.551-9.262,89.238,89.238,0,0,1,5.551,9.262Z" transform="translate(-366.099 -354.363)" fill="#263238"/>
                </g>
              </g>
              <path id="Caminho_742" data-name="Caminho 742" d="M365.121,344.117v1.725l2.7.314.141-1.316Z" transform="translate(-291.707 -317.801)" fill="#fff"/>
              <path id="Caminho_743" data-name="Caminho 743" d="M349.945,330.207v2.521l5.1.842.282-1.918Z" transform="translate(-286.071 -312.635)" fill="#fff"/>
              <path id="Caminho_744" data-name="Caminho 744" d="M312.1,386.177l-.251-12.538-10.171.687,1.09,12.733Z" transform="translate(-268.144 -328.765)" fill="#ffe6b6" opacity="0.36"/>
              <g id="Grupo_1768" data-name="Grupo 1768" transform="translate(59.815 63.865)">
                <g id="Grupo_1763" data-name="Grupo 1763">
                  <rect id="Retângulo_98" data-name="Retângulo 98" width="17.14" height="15.162" transform="translate(0.195 1.769) rotate(-5.416)" fill="#fafafa"/>
                  <g id="Grupo_1762" data-name="Grupo 1762">
                    <path id="Caminho_745" data-name="Caminho 745" d="M362.177,419.1a2.618,2.618,0,0,1-.043-.29c-.023-.207-.055-.476-.093-.817-.079-.734-.189-1.767-.328-3.071-.269-2.652-.649-6.4-1.106-10.9l.151.125-17.06,1.643c-.034.038.278-.336.146-.176v.028l0,.032.006.065.012.128.025.257.048.512q.048.51.1,1.017.1,1.013.189,2.007l.365,3.892c.235,2.532.458,4.934.664,7.156l-.158-.129,12.313-1.094,3.5-.294.933-.071a2.705,2.705,0,0,1,.333-.015,1.871,1.871,0,0,1-.3.045l-.9.1-3.457.366-12.392,1.248-.143.014-.014-.145c-.215-2.222-.448-4.623-.692-7.154l-.373-3.891q-.1-.994-.191-2.007-.049-.506-.1-1.017l-.049-.512-.024-.256-.013-.128-.006-.065,0-.032,0-.016v-.012c-.132.158.179-.221.148-.181l17.065-1.593.139-.013.012.138c.4,4.546.735,8.329.972,11,.107,1.294.192,2.319.253,3.048.025.329.045.592.06.793A1.553,1.553,0,0,1,362.177,419.1Z" transform="translate(-343.488 -403.85)" fill="#263238"/>
                  </g>
                </g>
                <g id="Grupo_1764" data-name="Grupo 1764" transform="translate(2.567 3.749)">
                  <path id="Caminho_746" data-name="Caminho 746" d="M360.93,409.833c.009.091-2.973.478-6.661.866s-6.687.63-6.7.541,2.973-.477,6.662-.866S360.921,409.744,360.93,409.833Z" transform="translate(-347.572 -409.815)" fill="#263238"/>
                </g>
                <g id="Grupo_1765" data-name="Grupo 1765" transform="translate(3.058 6.321)">
                  <path id="Caminho_747" data-name="Caminho 747" d="M361.122,413.917a9.711,9.711,0,0,1-1.834.454c-1.143.228-2.734.493-4.5.7s-3.378.318-4.543.36a9.652,9.652,0,0,1-1.889-.017,12.141,12.141,0,0,1,1.875-.214c1.159-.1,2.758-.248,4.519-.454s3.351-.434,4.5-.6A12.167,12.167,0,0,1,361.122,413.917Z" transform="translate(-348.353 -413.906)" fill="#263238"/>
                </g>
                <g id="Grupo_1766" data-name="Grupo 1766" transform="translate(3.778 11.929)">
                  <path id="Caminho_748" data-name="Caminho 748" d="M362.267,422.837a9.764,9.764,0,0,1-1.834.454c-1.144.228-2.734.493-4.5.7s-3.378.317-4.543.36a9.662,9.662,0,0,1-1.889-.017,12.141,12.141,0,0,1,1.875-.214c1.159-.1,2.758-.248,4.52-.454s3.35-.434,4.5-.6A12.088,12.088,0,0,1,362.267,422.837Z" transform="translate(-349.498 -422.826)" fill="#263238"/>
                </g>
                <g id="Grupo_1767" data-name="Grupo 1767" transform="translate(3.198 9.052)">
                  <path id="Caminho_749" data-name="Caminho 749" d="M361.064,418.264a121.485,121.485,0,0,1-12.489,1.785,121.594,121.594,0,0,1,12.489-1.785Z" transform="translate(-348.575 -418.25)" fill="#263238"/>
                </g>
              </g>
            </g>
            <g id="Grupo_1774" data-name="Grupo 1774" transform="translate(69.978 91.116)">
              <path id="Caminho_750" data-name="Caminho 750" d="M380.245,438.122s14.049-9.294,15.13-14.048S397.1,415,397.1,415l-15.01-6.217,1.489,5.409s-5.383,3.2-5.932,7.076c-.366,2.586-7.323,7.007-7.323,7.007h0a5.744,5.744,0,0,0-4.828-2.066l-5.846.413,3.949,8.911Z" transform="translate(-359.654 -408.779)" fill="#eebd9d"/>
              <g id="Grupo_1770" data-name="Grupo 1770" transform="translate(10.274 16.599)">
                <path id="Caminho_751" data-name="Caminho 751" d="M391.8,435.188a2.314,2.314,0,0,1-.664.27c-.437.146-1.091.29-1.861.543a7.639,7.639,0,0,0-2.439,1.416,12.154,12.154,0,0,1-3,1.907,10.175,10.175,0,0,1-6.372.534,3.344,3.344,0,0,1-1.066-.4.778.778,0,0,1-.388-.778.576.576,0,0,1,.315-.454c.126-.046.195-.018.193-.011s-.067.013-.163.07a.524.524,0,0,0-.219.41.638.638,0,0,0,.362.609,3.351,3.351,0,0,0,1.017.322,10.431,10.431,0,0,0,6.193-.61,12.479,12.479,0,0,0,2.947-1.844,7.509,7.509,0,0,1,2.552-1.4c.8-.23,1.453-.338,1.9-.444A4.346,4.346,0,0,1,391.8,435.188Z" transform="translate(-375.998 -435.184)" fill="#aa6550"/>
              </g>
              <g id="Grupo_1771" data-name="Grupo 1771" transform="translate(4.134 17.428)">
                <path id="Caminho_752" data-name="Caminho 752" d="M378.445,442.889c-.027.047-.722-.366-1.917-.859a17.292,17.292,0,0,0-4.873-1.213c-.492-.053-.975-.067-1.44-.078l-.089,0-.046-.072a15.216,15.216,0,0,0-2.614-3.085c-.756-.683-1.261-1.036-1.235-1.074a1.25,1.25,0,0,1,.39.2,10.213,10.213,0,0,1,.98.712,13.356,13.356,0,0,1,2.749,3.07l-.135-.074c.475.006.968.019,1.47.072a15.352,15.352,0,0,1,4.934,1.327,12.881,12.881,0,0,1,1.367.732A1.875,1.875,0,0,1,378.445,442.889Z" transform="translate(-366.229 -436.504)" fill="#aa6550"/>
              </g>
              <g id="Grupo_1772" data-name="Grupo 1772" transform="translate(16.106 21.243)">
                <path id="Caminho_753" data-name="Caminho 753" d="M389.313,442.587c.028.092-.952.446-2.056,1.078s-1.915,1.285-1.98,1.213a6.844,6.844,0,0,1,4.035-2.291Z" transform="translate(-385.274 -442.571)" fill="#aa6550"/>
              </g>
              <g id="Grupo_1773" data-name="Grupo 1773" transform="translate(23.683 4.361)">
                <path id="Caminho_754" data-name="Caminho 754" d="M401.4,415.9c-.013.1-.975-.021-2.1.28-1.128.286-1.91.859-1.969.781A4.066,4.066,0,0,1,401.4,415.9Z" transform="translate(-397.329 -415.717)" fill="#aa6550"/>
              </g>
            </g>
          </g>
        </g>
        <g id="Grupo_1777" data-name="Grupo 1777" transform="translate(49.144 0)">
          <path id="Caminho_755" data-name="Caminho 755" d="M249.065,61.226c-4.793-2.8-11.271.548-16.327-1.744-3.07-1.392-4.893-4.539-7.378-6.816-3.716-3.405-9.681-5.224-14.581-4.038s-8.28,2.891-10.028,7.62c-3.44-3.227-11.269.214-14.675,4.514s-4.021,9.434-3.962,14.92a72.4,72.4,0,0,0,5.785,27.553c.329.769.928,1.677,1.747,1.5.566-.119.883-.712,1.1-1.247,1.881-4.559,2.425-9.537,3.146-14.416s1.687-9.857,4.274-14.056,7.135-7.511,12.064-7.328c3.64.136,6.985,2.122,9.667,4.589s4.849,5.431,7.325,8.1,5.388,5.119,8.894,6.111,7.7.22,9.968-2.631,1.653-7.81-1.641-9.366a7.161,7.161,0,0,0,4.618-13.272Z" transform="translate(-182.111 -48.265)" fill="#263238"/>
        </g>
        <g id="Grupo_1779" data-name="Grupo 1779" transform="translate(67.121 4.191)">
          <g id="Grupo_1778" data-name="Grupo 1778">
            <path id="Caminho_756" data-name="Caminho 756" d="M262.375,72.527a2.111,2.111,0,0,1-.367.776,3.992,3.992,0,0,1-1.971,1.458,6.264,6.264,0,0,1-3.878-.062,10.5,10.5,0,0,1-2.254-.953,5.228,5.228,0,0,1-1.981-1.929,3.474,3.474,0,0,1-.238-3.031,3.059,3.059,0,0,1,2.806-1.677,3.789,3.789,0,0,1,1.746.375,3.211,3.211,0,0,1,1.343,1.277,4.475,4.475,0,0,1,.242,3.733,5.188,5.188,0,0,1-2.663,2.893,7.889,7.889,0,0,1-4.036.726,12.96,12.96,0,0,1-7.633-3.654,37,37,0,0,1-5.414-6.551,47.034,47.034,0,0,0-4.831-6.167,14.6,14.6,0,0,0-5.836-3.8,13.948,13.948,0,0,0-6.058-.527,17.429,17.429,0,0,0-8.131,3.434,22.8,22.8,0,0,0-1.874,1.558,6.9,6.9,0,0,1-.637.568c-.006-.006.039-.063.134-.172s.236-.269.434-.467A18.416,18.416,0,0,1,213.1,58.7a17.206,17.206,0,0,1,8.2-3.625,14.206,14.206,0,0,1,6.228.483,14.944,14.944,0,0,1,6.032,3.865,46.737,46.737,0,0,1,4.9,6.21,36.955,36.955,0,0,0,5.35,6.464,12.526,12.526,0,0,0,7.34,3.538,7.442,7.442,0,0,0,3.795-.668,4.728,4.728,0,0,0,2.446-2.627,4.047,4.047,0,0,0-.19-3.366,2.963,2.963,0,0,0-2.71-1.462,2.674,2.674,0,0,0-2.47,1.426,3.126,3.126,0,0,0,.2,2.712,4.925,4.925,0,0,0,1.837,1.826,10.333,10.333,0,0,0,2.174.959,6.131,6.131,0,0,0,3.737.143,4.02,4.02,0,0,0,1.953-1.336A6.939,6.939,0,0,0,262.375,72.527Z" transform="translate(-210.708 -54.931)" fill="#455a64"/>
          </g>
        </g>
        <g id="Grupo_1781" data-name="Grupo 1781" transform="translate(51.503 38.898)">
          <g id="Grupo_1780" data-name="Grupo 1780">
            <path id="Caminho_757" data-name="Caminho 757" d="M185.864,114.888c.021-.057.743.262,1.979.438a9.06,9.06,0,0,0,8.557-3.486c.761-.989,1.054-1.722,1.109-1.7a1.589,1.589,0,0,1-.176.524,7.617,7.617,0,0,1-.747,1.309,8.745,8.745,0,0,1-8.78,3.577,7.487,7.487,0,0,1-1.449-.414A1.62,1.62,0,0,1,185.864,114.888Z" transform="translate(-185.864 -110.143)" fill="#455a64"/>
          </g>
        </g>
      </g>
      <g id="Plant" transform="translate(6.256 205.287)">
        <g id="Grupo_1806" data-name="Grupo 1806">
          <g id="Grupo_1784" data-name="Grupo 1784" transform="translate(22.374)">
            <g id="Grupo_1783" data-name="Grupo 1783">
              <g id="Grupo_1782" data-name="Grupo 1782">
                <path id="Caminho_758" data-name="Caminho 758" d="M76.432,392.763c1.853,2.2,4.975,1.137,6.327-.427s1.793-3.7,2.185-5.725c.9-4.637,1.785-9.5.406-14.016a7.739,7.739,0,0,0-2.108-3.612,4.042,4.042,0,0,0-3.928-.929c-1.572.569-2.432,2.235-3.02,3.8a33.188,33.188,0,0,0-2,14.48,11.512,11.512,0,0,0,2.137,6.43" transform="translate(-74.175 -367.862)" fill="#87f6ce"/>
              </g>
            </g>
          </g>
          <g id="Grupo_1790" data-name="Grupo 1790" transform="translate(29.11 34.313)">
            <g id="Grupo_1789" data-name="Grupo 1789">
              <g id="Grupo_1788" data-name="Grupo 1788">
                <path id="Caminho_760" data-name="Caminho 760" d="M87.628,424.364a14.289,14.289,0,0,1,8.735-1.863,7.365,7.365,0,0,1,4.536,1.558c1.2,1.106,1.594,3.2.434,4.351a4.2,4.2,0,0,1-2.688.944c-2.337.181-4.964,0-6.7,1.573-.992.9-1.582,2.292-2.818,2.8a3.02,3.02,0,0,1-3.44-1.177,5.161,5.161,0,0,1-.713-3.76A5.814,5.814,0,0,1,87.628,424.364Z" transform="translate(-84.892 -422.447)" fill="#87f6ce"/>
              </g>
            </g>
          </g>
          <g id="Grupo_1793" data-name="Grupo 1793" transform="translate(0 9.791)">
            <g id="Grupo_1792" data-name="Grupo 1792">
              <g id="Grupo_1791" data-name="Grupo 1791">
                <path id="Caminho_761" data-name="Caminho 761" d="M59.005,402.316a8.57,8.57,0,0,0,.626-7.973,15.2,15.2,0,0,0-5.255-6.333,25.142,25.142,0,0,0-8.77-4.171,8.909,8.909,0,0,0-3.8-.3,3.945,3.945,0,0,0-2.974,2.183c-.728,1.75.294,3.7,1.351,5.277a63.766,63.766,0,0,0,6.216,7.844c1.829,1.968,3.894,3.885,6.479,4.618s5.172.388,6.342-1.464" transform="translate(-38.583 -383.439)" fill="#87f6ce"/>
              </g>
            </g>
          </g>
          <g id="Grupo_1797" data-name="Grupo 1797" transform="translate(27.442 37.645)">
            <g id="Grupo_1796" data-name="Grupo 1796">
              <g id="Grupo_1795" data-name="Grupo 1795">
                <g id="Grupo_1794" data-name="Grupo 1794">
                  <path id="Caminho_762" data-name="Caminho 762" d="M82.477,450.4a5.183,5.183,0,0,0,.053-1.079c.006-.783.014-1.765.023-2.934a42.143,42.143,0,0,1,.273-4.325,33.082,33.082,0,0,1,1.1-5.175,18.64,18.64,0,0,1,2.165-4.786,9.637,9.637,0,0,1,3.009-2.993,9.152,9.152,0,0,1,2.662-1.1,5.106,5.106,0,0,0,1.047-.248,5.028,5.028,0,0,0-1.081.08,8.322,8.322,0,0,0-2.789,1,9.621,9.621,0,0,0-3.186,3.032,18.192,18.192,0,0,0-2.25,4.887,30.889,30.889,0,0,0-1.082,5.256,36.2,36.2,0,0,0-.182,4.371c.018,1.243.073,2.247.118,2.94A5.018,5.018,0,0,0,82.477,450.4Z" transform="translate(-82.237 -427.747)" fill="#263238"/>
                </g>
              </g>
            </g>
          </g>
          <g id="Grupo_1801" data-name="Grupo 1801" transform="translate(26.341 9.469)">
            <g id="Grupo_1800" data-name="Grupo 1800">
              <g id="Grupo_1799" data-name="Grupo 1799">
                <g id="Grupo_1798" data-name="Grupo 1798">
                  <path id="Caminho_763" data-name="Caminho 763" d="M81.827,431.5a2.194,2.194,0,0,0-.016-.5c-.035-.372-.077-.839-.13-1.414-.113-1.227-.272-3-.4-5.2-.284-4.4-.446-10.486-.312-17.207s.579-12.8,1.083-17.176c.113-1.1.238-2.085.361-2.951s.21-1.615.314-2.223c.084-.57.153-1.035.207-1.4a2.092,2.092,0,0,0,.043-.5,2.047,2.047,0,0,0-.13.479c-.076.366-.172.826-.29,1.392-.129.6-.251,1.35-.388,2.216s-.294,1.853-.427,2.949a160.97,160.97,0,0,0-1.214,17.2c-.135,6.735.078,12.838.442,17.239.17,2.2.376,3.977.542,5.2.087.571.157,1.037.212,1.406A2.061,2.061,0,0,0,81.827,431.5Z" transform="translate(-80.486 -382.925)" fill="#263238"/>
                </g>
              </g>
            </g>
          </g>
          <g id="Grupo_1805" data-name="Grupo 1805" transform="translate(8.066 14.933)">
            <g id="Grupo_1804" data-name="Grupo 1804">
              <g id="Grupo_1803" data-name="Grupo 1803">
                <g id="Grupo_1802" data-name="Grupo 1802">
                  <path id="Caminho_764" data-name="Caminho 764" d="M70.013,423.008a9.345,9.345,0,0,0-.142-1.477c-.139-.944-.392-2.305-.81-3.962a52.862,52.862,0,0,0-1.823-5.715,51.883,51.883,0,0,0-3.055-6.684,36.916,36.916,0,0,0-8.158-10.512,18.319,18.319,0,0,0-1.825-1.416c-.278-.2-.526-.393-.774-.545l-.694-.392a9.422,9.422,0,0,0-1.315-.685,44.192,44.192,0,0,1,4.4,3.273,38.907,38.907,0,0,1,7.976,10.488A55.392,55.392,0,0,1,66.858,412a59.45,59.45,0,0,1,1.9,5.651c.454,1.636.752,2.98.942,3.911A9.554,9.554,0,0,0,70.013,423.008Z" transform="translate(-51.415 -391.618)" fill="#263238"/>
                </g>
              </g>
            </g>
          </g>
        </g>
      </g>
    </g>
  </g>
</svg>
