<svg xmlns="http://www.w3.org/2000/svg" xmlns:xlink="http://www.w3.org/1999/xlink" width="238.5" height="54" viewBox="0 0 238.5 54">
  <defs>
    <linearGradient id="linear-gradient" x1="0.06" y1="-0.334" x2="1.437" y2="1.645" gradientUnits="objectBoundingBox">
      <stop offset="0" stop-color="#45cedd"/>
      <stop offset="1" stop-color="#87f6ce"/>
    </linearGradient>
  </defs>
  <g id="Grupo_5411" data-name="Grupo 5411" transform="translate(-28.5 -37)">
    <g id="Grupo_5395" data-name="Grupo 5395" transform="translate(-6.363 -253.523)">
      <path id="União_3" data-name="União 3" d="M3550.4,1992.3a24.379,24.379,0,0,1-5.76-4.738,15.745,15.745,0,0,1-6.78-2.443,13.714,13.714,0,0,1-4.336-4.518h-16.161a2,2,0,1,1,0-4h14.566a15.325,15.325,0,0,1-.369-3.4h-6.324a2,2,0,0,1,0-4h6.843a13.6,13.6,0,0,1,1.462-3.421,13.787,13.787,0,0,1,2.483-3.06H3526a2,2,0,0,1,0-4h20a2.039,2.039,0,0,1,.213.011q.331-.011.667-.011a16.221,16.221,0,0,1,7.84,1.881,14.006,14.006,0,0,1,7.48,12.6,13.945,13.945,0,0,1-2.74,8.56,14.166,14.166,0,0,1-7.26,5.12,7.145,7.145,0,0,0,1.94,1.5,4.539,4.539,0,0,0,2.02.459,6.083,6.083,0,0,0,4.561-2.079l2.88,3.44a8.953,8.953,0,0,1-3.3,2.559,10.181,10.181,0,0,1-4.26.881A11.819,11.819,0,0,1,3550.4,1992.3Zm-11.141-14.46a8.19,8.19,0,0,0,3.14,3.182,9.383,9.383,0,0,0,8.96,0,8.19,8.19,0,0,0,3.14-3.182,10.014,10.014,0,0,0,0-9.279,8.193,8.193,0,0,0-3.14-3.181,9.376,9.376,0,0,0-8.96,0,8.193,8.193,0,0,0-3.14,3.181q-.175.313-.323.64h6.3a2,2,0,1,1,0,4h-7.116A9.35,9.35,0,0,0,3539.259,1977.842Zm71.12,8.261a10.616,10.616,0,0,1-4.281-3.941,10.847,10.847,0,0,1,4.281-15.379,13.223,13.223,0,0,1,6.18-1.419,11.972,11.972,0,0,1,5.94,1.419,8.428,8.428,0,0,1,3.7,4.06l-4.84,2.6a5.288,5.288,0,0,0-4.839-2.96,5.475,5.475,0,0,0-4.041,1.6,6.738,6.738,0,0,0,0,8.72,5.473,5.473,0,0,0,4.041,1.6,5.234,5.234,0,0,0,4.839-2.96l4.84,2.64a8.6,8.6,0,0,1-3.7,4,11.843,11.843,0,0,1-5.94,1.44A13.232,13.232,0,0,1,3610.38,1986.1Zm-41.38-1.02q-2.481-2.44-2.48-7.24v-12.159h6.24v11.24q0,5.2,4.36,5.2a4.685,4.685,0,0,0,3.6-1.46,6.154,6.154,0,0,0,1.36-4.339v-10.641h6.241V1987.2h-5.92v-2.559a8.291,8.291,0,0,1-2.96,2.14,9.316,9.316,0,0,1-3.719.74A9.161,9.161,0,0,1,3569,1985.082Zm76.679,2.12-6.8-8.44-3,2.96v5.479h-6.239v-25.679h-10.162a2,2,0,0,1,0-4h14.656a1.745,1.745,0,0,1,1.746,1.745v15.055l9.12-8.64h7.44l-8.96,9.12,9.76,12.4Zm-51.559,0v-21.519h6.239V1987.2Z" transform="translate(-3480 -1653.199)" stroke="rgba(0,0,0,0)" stroke-miterlimit="10" stroke-width="1" fill="url(#linear-gradient)"/>
    </g>
    <circle id="Elipse_71" data-name="Elipse 71" cx="3" cy="3" r="3" transform="translate(108 49)" fill="#5eddd7"/>
    <text id="Pick" transform="translate(194 81)" font-size="41" font-family="SegoeUI, Segoe UI"><tspan x="0" y="0">Pick</tspan></text>
    <circle id="Elipse_95" data-name="Elipse 95" cx="3" cy="3" r="3" transform="translate(178 66)"/>
  </g>
</svg>
